<svg width="392" height="266" viewBox="0 0 392 266" fill="none" xmlns="http://www.w3.org/2000/svg">
<g filter="url(#filter0_d_35_15)">
<path d="M64.6786 63.8914C72.9028 61.377 79.4342 60.439 84.2726 61.0774C89.2067 61.6865 92.9156 63.8253 95.3993 67.4938C96.9879 69.992 98.1043 73.0197 98.7486 76.5767C99.3929 80.1337 99.4485 84.4483 98.9154 89.5203C98.4554 93.8962 97.613 98.3891 96.388 102.999C95.1631 107.609 93.619 112.172 91.756 116.688C89.9991 121.075 87.9283 125.366 85.5438 129.56C83.2653 133.626 80.7896 137.367 78.1166 140.783C73.0889 147.229 67.5007 152.403 61.3521 156.304C55.3096 160.076 47.985 163.278 39.3783 165.91C31.0584 168.453 24.4583 169.605 19.5781 169.364C14.6978 169.124 10.9845 167.468 8.43803 164.396C6.62684 162.254 5.32439 159.235 4.53066 155.339C3.83257 151.413 3.82324 146.219 4.50267 139.754C5.66294 128.715 8.56257 118.299 13.2016 108.506C17.9466 98.5852 24.0762 90.0213 31.5903 82.815C36.1221 78.4455 41.0484 74.7255 46.3693 71.6549C51.6901 68.5843 57.7932 65.9965 64.6786 63.8914ZM39.3282 155.818C41.5277 155.146 43.6883 153.522 45.81 150.949C48.0377 148.246 50.1422 144.956 52.1233 141.077C54.2105 137.07 56.1535 132.674 57.9522 127.889C59.8466 123.074 61.5176 118.184 62.9652 113.217C64.4128 108.251 65.616 103.407 66.575 98.6859C67.6401 93.8362 68.3712 89.5218 68.7684 85.7426C69.312 80.5711 69.1571 77.2013 68.3038 75.6333C67.5565 73.9366 66.2266 73.3807 64.314 73.9654C62.1145 74.6379 59.9061 76.2756 57.6888 78.8786C55.4715 81.4817 53.2766 84.7516 51.1043 88.6885C49.038 92.4967 47.0576 96.808 45.1633 101.622C43.375 106.308 41.7144 111.099 40.1817 115.996C38.7445 120.863 37.5039 125.622 36.4597 130.273C35.5112 134.894 34.8383 139.095 34.4411 142.874C33.8453 148.542 34.0062 152.295 34.9238 154.133C35.9475 155.841 37.4156 156.403 39.3282 155.818Z" fill="white"/>
<path d="M113.838 166.247L84.5754 175.193L112.026 80.4586L135.407 73.3102L136.986 82.0682L137.847 81.805C141.687 76.9733 145.794 73.1186 150.169 70.2409C154.65 67.2346 158.947 65.1028 163.059 63.8456C166.406 62.8223 169.122 62.5214 171.206 62.9429C173.397 63.2358 175.067 64.0726 176.218 65.4534C177.369 66.8342 178.1 68.6801 178.413 70.991C178.725 73.3018 178.735 75.8496 178.442 78.6343C178.296 80.0266 177.981 82.1443 177.497 84.9875C177.013 87.8306 176.253 91.0949 175.218 94.7804C174.193 98.3664 172.866 102.189 171.236 106.249C169.617 110.21 167.598 114.003 165.181 117.63C162.859 121.227 160.021 124.453 156.666 127.308C153.407 130.133 149.626 132.203 145.323 133.519C142.932 134.25 140.621 134.668 138.388 134.773C136.251 134.849 134.327 134.667 132.614 134.228C130.902 133.789 129.396 133.142 128.098 132.288C126.905 131.305 126.048 130.22 125.525 129.032L124.664 129.295L113.838 166.247ZM133.073 123.259C135.368 122.557 137.412 120.729 139.203 117.775C141.005 114.722 142.562 111.358 143.873 107.684C145.195 103.911 146.225 100.275 146.963 96.7771C147.807 93.1501 148.318 90.4912 148.496 88.8005C148.705 86.8115 148.543 85.2728 148.009 84.1846C147.571 83.0672 146.54 82.757 144.914 83.254C143.097 83.8095 141.302 85.0319 139.53 86.9213C137.769 88.7112 136.453 90.2204 135.583 91.4488L127.12 120.459C127.77 121.319 128.563 122.135 129.5 122.907C130.448 123.58 131.639 123.698 133.073 123.259Z" fill="white"/>
<path d="M189.378 56.8098C193 54.9324 196.202 53.0871 198.984 51.2739C201.766 49.4608 204.335 47.4721 206.692 45.3078C209.144 43.1144 211.489 40.6167 213.727 37.8147C216.061 34.9836 218.59 31.6113 221.315 27.6979L236.09 23.1807L229.829 44.4424L241.018 41.0217L238.103 51.5868L226.771 55.0514L217.832 85.9392C217.113 88.3728 216.517 90.5285 216.042 92.4064C215.566 94.2842 215.277 95.7204 215.172 96.7149C214.963 98.704 215.502 99.7425 216.788 99.8304C218.171 99.8891 220.774 99.3337 224.6 98.1642L221.366 109.115C220.676 109.519 219.608 109.99 218.163 110.528C216.814 111.037 215.273 111.604 213.542 112.229C211.895 112.925 210.163 113.551 208.346 114.107C206.614 114.732 205.079 115.25 203.74 115.659C201.349 116.39 199.027 116.908 196.774 117.211C194.51 117.615 192.522 117.597 190.81 117.158C189.108 116.619 187.787 115.531 186.849 113.893C186.006 112.225 185.762 109.701 186.118 106.32C186.243 105.126 186.448 103.62 186.732 101.8C187.111 99.9519 187.655 97.8605 188.363 95.5264L197.508 63.998L186.319 67.4187L189.378 56.8098Z" fill="white"/>
<path d="M259.896 97.3356L230.776 106.238L240.674 72.1696L250.572 38.1008L279.978 29.1104L259.896 97.3356ZM285.762 8.42779C285.521 10.7152 284.834 12.8504 283.7 14.8335C282.662 16.7873 281.315 18.5948 279.659 20.2561C278.099 21.888 276.332 23.2948 274.357 24.4762C272.381 25.6577 270.389 26.5554 268.381 27.1694C264.556 28.3389 261.452 28.3735 259.068 27.2733C256.685 26.1731 255.707 23.5843 256.136 19.5067C256.366 17.3188 257 15.2479 258.038 13.2941C259.087 11.2408 260.386 9.4479 261.936 7.91537C263.591 6.25414 265.407 4.83281 267.382 3.65135C269.453 2.44065 271.54 1.51369 273.644 0.870475C277.374 -0.269774 280.43 -0.289799 282.814 0.810394C285.197 1.91058 286.18 4.44971 285.762 8.42779Z" fill="white"/>
<path d="M89.967 156.586L119.251 147.771L94.3832 235.059L123.503 226.156L119.747 239.433L59.5 257.852L89.967 156.586Z" fill="white"/>
<path d="M178.14 157.907C189.52 154.428 197.572 153.988 202.297 156.586C207.288 159.295 209.251 165.722 208.184 175.866C207.526 182.131 205.926 188.107 203.385 193.793C200.854 199.38 197.599 204.369 193.62 208.762C185.683 217.349 174.829 223.748 161.058 227.958C149.296 231.554 141.126 231.79 136.549 228.665C131.61 225.458 129.653 218.982 130.677 209.236C131.357 202.771 133.217 196.524 136.257 190.492C139.393 184.432 143.535 178.931 148.682 173.988C156.175 166.98 165.995 161.621 178.14 157.907ZM162.411 217.726C164.802 216.995 167.005 214.974 169.019 211.663C171.128 208.323 172.918 204.503 174.388 200.203C175.869 195.804 177.073 191.393 178 186.971C179.034 182.419 179.718 178.553 180.053 175.37C180.345 172.586 180.278 170.585 179.851 169.368C179.529 168.022 178.508 167.613 176.787 168.139C174.204 168.928 171.806 171.057 169.59 174.526C167.47 177.966 165.627 181.85 164.061 186.179C162.495 190.508 161.206 194.849 160.193 199.201C159.276 203.524 158.682 206.979 158.41 209.564C157.731 216.029 159.064 218.749 162.411 217.726Z" fill="white"/>
<path d="M225.039 150.499C230.177 146.522 235.338 143.212 240.522 140.568C245.811 137.796 251.612 135.445 257.923 133.515C264.044 131.644 269.06 130.592 272.972 130.358C276.884 130.125 279.936 130.587 282.128 131.746C284.32 132.905 285.759 134.631 286.443 136.924C287.128 139.218 287.297 142.005 286.952 145.287C286.754 147.177 286.396 149.259 285.879 151.535C285.458 153.781 285.026 155.694 284.582 157.274L274.391 192.154L251.296 199.214L249.717 190.456L248.857 190.72C245.431 195.136 241.562 198.918 237.251 202.064C233.047 205.082 228.936 207.205 224.92 208.433C222.625 209.135 220.414 209.474 218.288 209.45C216.161 209.427 214.311 208.982 212.736 208.116C211.171 207.15 209.978 205.734 209.156 203.868C208.344 201.902 208.106 199.328 208.44 196.146C208.984 190.974 210.751 186.487 213.742 182.685C216.84 178.754 220.666 175.37 225.222 172.534C229.884 169.568 235.009 167.039 240.597 164.946C246.281 162.823 251.945 160.899 257.587 159.174C257.883 158.121 258.268 156.656 258.743 154.778C259.229 152.801 259.544 151.116 259.691 149.723C259.879 147.933 259.573 146.439 258.774 145.239C258.08 143.911 256.299 143.686 253.43 144.563C250.083 145.586 247.487 147.39 245.642 149.976C243.903 152.433 242.642 155.176 241.861 158.207L220.918 164.609L225.039 150.499ZM255.272 166.668L252.69 167.457C249.917 168.305 247.484 169.434 245.392 170.843C243.406 172.124 241.729 173.551 240.361 175.125C239.088 176.669 238.086 178.275 237.355 179.942C236.625 181.609 236.181 183.189 236.024 184.68C235.773 187.067 236.159 188.682 237.181 189.524C238.299 190.338 239.671 190.496 241.296 189.999C243.305 189.385 245.343 188.04 247.413 185.963C249.578 183.857 251.03 181.488 251.77 178.856L255.272 166.668Z" fill="white"/>
<path d="M357.907 69.5946L387.314 60.6042L356.264 167.123L333.026 174.227L331.448 165.47L330.444 165.777C329.776 166.847 328.752 168.219 327.373 169.892C326.1 171.436 324.492 173.082 322.55 174.831C320.618 176.481 318.371 178.034 315.812 179.49C313.242 181.046 310.331 182.321 307.079 183.315C303.732 184.338 300.916 184.718 298.629 184.454C296.449 184.062 294.688 183.205 293.346 181.882C292.1 180.531 291.273 178.714 290.865 176.433C290.467 174.052 290.425 171.369 290.739 168.386C290.875 167.093 291.184 165.025 291.668 162.182C292.163 159.239 292.922 155.975 293.947 152.389C295.078 148.674 296.501 144.822 298.216 140.833C300.037 136.714 302.252 132.813 304.861 129.127C307.566 125.413 310.738 122.085 314.38 119.143C318.031 116.101 322.297 113.835 327.174 112.343C328.704 111.876 330.314 111.528 332.004 111.3C333.694 111.072 335.262 111.122 336.709 111.45C338.251 111.748 339.565 112.454 340.652 113.565C341.738 114.677 342.443 116.338 342.766 118.55L343.77 118.243L357.907 69.5946ZM335.248 124.025C332.953 124.726 330.9 126.654 329.087 129.807C327.285 132.86 325.723 136.274 324.401 140.047C323.079 143.82 321.996 147.52 321.152 151.147C320.403 154.745 319.94 157.389 319.763 159.08C319.553 161.069 319.663 162.672 320.09 163.889C320.528 165.006 321.56 165.316 323.185 164.819C324.142 164.527 325.071 164.05 325.974 163.389C326.982 162.6 327.901 161.789 328.729 160.959C329.662 160 330.453 159.084 331.1 158.213C331.747 157.341 332.288 156.598 332.722 155.984L341.17 127.123C340.616 126.234 339.822 125.418 338.79 124.674C337.863 123.803 336.683 123.586 335.248 124.025Z" fill="white"/>
</g>
<defs>
<filter id="filter0_d_35_15" x="0" y="0" width="391.313" height="265.852" filterUnits="userSpaceOnUse" color-interpolation-filters="sRGB">
<feFlood flood-opacity="0" result="BackgroundImageFix"/>
<feColorMatrix in="SourceAlpha" type="matrix" values="0 0 0 0 0 0 0 0 0 0 0 0 0 0 0 0 0 0 127 0" result="hardAlpha"/>
<feOffset dy="4"/>
<feGaussianBlur stdDeviation="2"/>
<feComposite in2="hardAlpha" operator="out"/>
<feColorMatrix type="matrix" values="0 0 0 0 0 0 0 0 0 0 0 0 0 0 0 0 0 0 0.25 0"/>
<feBlend mode="normal" in2="BackgroundImageFix" result="effect1_dropShadow_35_15"/>
<feBlend mode="normal" in="SourceGraphic" in2="effect1_dropShadow_35_15" result="shape"/>
</filter>
</defs>
</svg>
