<svg width="2399" height="956" viewBox="0 0 2399 956" fill="none" xmlns="http://www.w3.org/2000/svg">
<path d="M756.476 520H511.976L756.476 31H1000.98L756.476 520Z" fill="white" stroke="white"/>
<path d="M695.476 31.5L451.476 520C294.976 520 273.976 388.5 327.476 279L451.476 31.5H695.476Z" fill="white" stroke="white"/>
<path d="M44.7383 731.189H53.7227V776.246C53.7227 780.259 54.9954 783.568 57.541 786.174C60.0866 788.749 63.4557 790.037 67.6484 790.037C72.0807 790.037 75.5697 788.779 78.1152 786.264C80.6608 783.748 81.9336 780.334 81.9336 776.021V731.189H90.918V776.965C90.918 783.613 88.8366 788.809 84.6738 792.553C80.541 796.266 74.8958 798.123 67.7383 798.123C60.3711 798.123 54.696 796.296 50.7129 792.643C46.7298 788.989 44.7383 783.748 44.7383 776.92V731.189ZM133.324 797V769.014C133.324 763.893 132.546 760.314 130.988 758.277C129.461 756.211 126.885 755.178 123.262 755.178C121.315 755.178 119.279 755.762 117.152 756.93C115.026 758.098 113.394 759.535 112.256 761.242V797H103.721V748.889H109.561L112.256 755.088C115.071 750.356 119.668 747.99 126.047 747.99C136.589 747.99 141.859 754.399 141.859 767.217V797H133.324ZM162.838 730.695C164.305 730.695 165.548 731.219 166.566 732.268C167.615 733.286 168.139 734.514 168.139 735.951C168.139 737.419 167.615 738.676 166.566 739.725C165.548 740.743 164.305 741.252 162.838 741.252C161.4 741.252 160.158 740.743 159.109 739.725C158.091 738.676 157.582 737.419 157.582 735.951C157.582 734.484 158.091 733.241 159.109 732.223C160.128 731.204 161.37 730.695 162.838 730.695ZM158.166 797V756.076H151.562V748.889H166.701V797H158.166ZM224.74 797.898H222.494L208.389 765.15L194.328 797.898H192.082L174.877 748.754H183.996L194.283 780.334L207.086 748.754H209.332L222.539 780.334L233.59 748.754H241.99L224.74 797.898ZM289.248 773.775H254.568C254.568 779.406 256.111 783.733 259.195 786.758C261.921 789.393 265.424 790.711 269.707 790.711C274.589 790.711 278.661 789.288 281.926 786.443L285.52 792.598C284.202 793.915 282.18 795.053 279.455 796.012C276.041 797.27 272.238 797.898 268.045 797.898C261.995 797.898 256.859 795.847 252.637 791.744C247.935 787.222 245.584 781.143 245.584 773.506C245.584 765.57 247.995 759.206 252.816 754.414C257.129 750.132 262.235 747.99 268.135 747.99C274.993 747.99 280.368 749.922 284.262 753.785C288.035 757.499 289.922 762.425 289.922 768.564C289.922 770.451 289.697 772.188 289.248 773.775ZM268.539 755.178C264.736 755.178 261.546 756.406 258.971 758.861C256.515 761.197 255.122 764.102 254.793 767.576H281.432C281.432 764.132 280.354 761.257 278.197 758.951C275.831 756.436 272.612 755.178 268.539 755.178ZM325.096 757.109C323.239 755.822 321.367 755.178 319.48 755.178C316.456 755.178 313.805 756.57 311.529 759.355C309.283 762.141 308.16 765.495 308.16 769.418V797H299.625V748.889H308.16V756.57C311.275 750.85 315.902 747.99 322.041 747.99C323.568 747.99 325.77 748.26 328.645 748.799L325.096 757.109ZM331.564 794.125L334.574 786.039C339.336 789.154 343.169 790.711 346.074 790.711C351.345 790.711 353.98 788.495 353.98 784.062C353.98 780.888 351.435 778.163 346.344 775.887C342.421 774.09 339.77 772.727 338.393 771.799C337.045 770.87 335.862 769.822 334.844 768.654C333.855 767.456 333.107 766.199 332.598 764.881C332.118 763.533 331.879 762.096 331.879 760.568C331.879 756.615 333.316 753.531 336.191 751.314C339.066 749.098 342.825 747.99 347.467 747.99C350.971 747.99 355.388 749.098 360.719 751.314L358.293 759.221C354.909 756.525 351.51 755.178 348.096 755.178C346.059 755.178 344.337 755.657 342.93 756.615C341.552 757.574 340.863 758.786 340.863 760.254C340.863 763.339 342.615 765.674 346.119 767.262L352.229 770.047C355.972 771.754 358.697 773.701 360.404 775.887C362.111 778.073 362.965 780.813 362.965 784.107C362.965 788.42 361.452 791.804 358.428 794.26C355.403 796.686 351.21 797.898 345.85 797.898C340.788 797.898 336.027 796.641 331.564 794.125ZM390.367 805.176C389.259 808.23 386.923 810.776 383.359 812.812C379.826 814.849 375.872 815.867 371.5 815.867V808.23C375.064 808.23 378.118 807.392 380.664 805.715C383.21 804.068 384.482 802.046 384.482 799.65C384.482 797.015 384.018 794.424 383.09 791.879C382.161 789.303 380.964 786.129 379.496 782.355L366.469 748.889H375.184L389.334 786.084L402.047 748.889H410.762L390.367 805.176ZM420.42 755.627H414.85V748.889H420.42V738.826L428.955 735.547V748.889H442.162V755.627H428.955V779.525C428.955 783.568 429.629 786.443 430.977 788.15C432.354 789.857 434.555 790.711 437.58 790.711C439.766 790.711 442.027 790.157 444.363 789.049L445.621 796.551C442.087 797.449 438.209 797.898 433.986 797.898C430.183 797.898 426.964 796.491 424.328 793.676C421.723 790.831 420.42 787.252 420.42 782.939V755.627ZM494.361 773.775H459.682C459.682 779.406 461.224 783.733 464.309 786.758C467.034 789.393 470.538 790.711 474.82 790.711C479.702 790.711 483.775 789.288 487.039 786.443L490.633 792.598C489.315 793.915 487.294 795.053 484.568 796.012C481.154 797.27 477.351 797.898 473.158 797.898C467.109 797.898 461.973 795.847 457.75 791.744C453.048 787.222 450.697 781.143 450.697 773.506C450.697 765.57 453.108 759.206 457.93 754.414C462.242 750.132 467.348 747.99 473.248 747.99C480.106 747.99 485.482 749.922 489.375 753.785C493.148 757.499 495.035 762.425 495.035 768.564C495.035 770.451 494.811 772.188 494.361 773.775ZM473.652 755.178C469.849 755.178 466.66 756.406 464.084 758.861C461.628 761.197 460.236 764.102 459.906 767.576H486.545C486.545 764.132 485.467 761.257 483.311 758.951C480.945 756.436 477.725 755.178 473.652 755.178ZM507.119 755.627H501.549V748.889H507.119V738.826L515.654 735.547V748.889H528.861V755.627H515.654V779.525C515.654 783.568 516.328 786.443 517.676 788.15C519.053 789.857 521.255 790.711 524.279 790.711C526.465 790.711 528.727 790.157 531.062 789.049L532.32 796.551C528.786 797.449 524.908 797.898 520.686 797.898C516.882 797.898 513.663 796.491 511.027 793.676C508.422 790.831 507.119 787.252 507.119 782.939V755.627Z" fill="white"/>
<path d="M398.537 904.898H396.291L382.186 872.15L368.125 904.898H365.879L348.674 855.754H357.793L368.08 887.334L380.883 855.754H383.129L396.336 887.334L407.387 855.754H415.787L398.537 904.898ZM447.996 900.99L451.275 892.725C452.952 893.952 455.034 894.986 457.52 895.824C460.035 896.633 462.281 897.037 464.258 897.037C467.762 897.037 470.577 896.079 472.703 894.162C474.829 892.245 475.893 889.805 475.893 886.84C475.893 884.624 475.294 882.572 474.096 880.686C472.928 878.769 469.963 876.688 465.201 874.441L459.9 871.971C455.408 869.874 452.264 867.389 450.467 864.514C448.7 861.639 447.816 858.18 447.816 854.137C447.816 849.225 449.553 845.152 453.027 841.918C456.501 838.684 460.964 837.066 466.414 837.066C473.691 837.066 478.753 838.249 481.598 840.615L478.947 848.432C477.749 847.563 475.923 846.725 473.467 845.916C471.011 845.107 468.735 844.703 466.639 844.703C463.584 844.703 461.173 845.572 459.406 847.309C457.669 849.046 456.801 851.277 456.801 854.002C456.801 855.679 457.115 857.206 457.744 858.584C458.373 859.962 459.242 861.115 460.35 862.043C461.488 862.971 463.794 864.274 467.268 865.951L472.658 868.512C477.15 870.638 480.295 873.184 482.092 876.148C483.919 879.083 484.832 882.827 484.832 887.379C484.832 892.32 482.84 896.513 478.857 899.957C474.904 903.401 469.604 905.123 462.955 905.123C457.115 905.123 452.129 903.745 447.996 900.99ZM503.699 896.363H530.383V904H490.312V901.754L517.67 863.525H490.762V855.889H530.113V858.314L503.699 896.363ZM574.541 859.797L570.318 865.816C569.45 864.948 567.908 864.124 565.691 863.346C563.505 862.567 561.349 862.178 559.223 862.178C554.581 862.178 550.897 863.81 548.172 867.074C545.447 870.309 544.084 874.756 544.084 880.416C544.084 886.046 545.477 890.344 548.262 893.309C551.047 896.243 554.91 897.711 559.852 897.711C563.685 897.711 567.548 896.229 571.441 893.264L574.811 900.451C570.229 903.416 564.553 904.898 557.785 904.898C551.227 904.898 545.806 902.697 541.523 898.295C537.241 893.893 535.1 887.933 535.1 880.416C535.1 872.749 537.316 866.595 541.748 861.953C546.21 857.311 552.305 854.99 560.031 854.99C562.517 854.99 565.212 855.514 568.117 856.562C571.022 857.611 573.163 858.689 574.541 859.797ZM592.914 896.363H619.598V904H579.527V901.754L606.885 863.525H579.977V855.889H619.328V858.314L592.914 896.363ZM667.979 880.775H633.299C633.299 886.406 634.841 890.733 637.926 893.758C640.651 896.393 644.155 897.711 648.438 897.711C653.319 897.711 657.392 896.288 660.656 893.443L664.25 899.598C662.932 900.915 660.911 902.053 658.186 903.012C654.771 904.27 650.968 904.898 646.775 904.898C640.726 904.898 635.59 902.847 631.367 898.744C626.665 894.222 624.314 888.143 624.314 880.506C624.314 872.57 626.725 866.206 631.547 861.414C635.859 857.132 640.965 854.99 646.865 854.99C653.723 854.99 659.099 856.922 662.992 860.785C666.766 864.499 668.652 869.425 668.652 875.564C668.652 877.451 668.428 879.188 667.979 880.775ZM647.27 862.178C643.466 862.178 640.277 863.406 637.701 865.861C635.245 868.197 633.853 871.102 633.523 874.576H660.162C660.162 871.132 659.084 868.257 656.928 865.951C654.562 863.436 651.342 862.178 647.27 862.178ZM713.979 859.797L709.756 865.816C708.887 864.948 707.345 864.124 705.129 863.346C702.943 862.567 700.786 862.178 698.66 862.178C694.018 862.178 690.335 863.81 687.609 867.074C684.884 870.309 683.521 874.756 683.521 880.416C683.521 886.046 684.914 890.344 687.699 893.309C690.484 896.243 694.348 897.711 699.289 897.711C703.122 897.711 706.986 896.229 710.879 893.264L714.248 900.451C709.666 903.416 703.991 904.898 697.223 904.898C690.664 904.898 685.243 902.697 680.961 898.295C676.678 893.893 674.537 887.933 674.537 880.416C674.537 872.749 676.753 866.595 681.186 861.953C685.648 857.311 691.742 854.99 699.469 854.99C701.954 854.99 704.65 855.514 707.555 856.562C710.46 857.611 712.601 858.689 713.979 859.797ZM732.037 837.695C733.505 837.695 734.747 838.219 735.766 839.268C736.814 840.286 737.338 841.514 737.338 842.951C737.338 844.419 736.814 845.676 735.766 846.725C734.747 847.743 733.505 848.252 732.037 848.252C730.6 848.252 729.357 847.743 728.309 846.725C727.29 845.676 726.781 844.419 726.781 842.951C726.781 841.484 727.29 840.241 728.309 839.223C729.327 838.204 730.57 837.695 732.037 837.695ZM727.365 904V863.076H720.762V855.889H735.9V904H727.365ZM779.07 904V876.014C779.07 870.893 778.292 867.314 776.734 865.277C775.207 863.211 772.632 862.178 769.008 862.178C767.061 862.178 765.025 862.762 762.898 863.93C760.772 865.098 759.14 866.535 758.002 868.242V904H749.467V855.889H755.307L758.002 862.088C760.817 857.356 765.414 854.99 771.793 854.99C782.335 854.99 787.605 861.399 787.605 874.217V904H779.07ZM808.584 837.695C810.051 837.695 811.294 838.219 812.312 839.268C813.361 840.286 813.885 841.514 813.885 842.951C813.885 844.419 813.361 845.676 812.312 846.725C811.294 847.743 810.051 848.252 808.584 848.252C807.146 848.252 805.904 847.743 804.855 846.725C803.837 845.676 803.328 844.419 803.328 842.951C803.328 841.484 803.837 840.241 804.855 839.223C805.874 838.204 807.117 837.695 808.584 837.695ZM803.912 904V863.076H797.309V855.889H812.447V904H803.912ZM866.533 880.775H831.854C831.854 886.406 833.396 890.733 836.48 893.758C839.206 896.393 842.71 897.711 846.992 897.711C851.874 897.711 855.947 896.288 859.211 893.443L862.805 899.598C861.487 900.915 859.465 902.053 856.74 903.012C853.326 904.27 849.523 904.898 845.33 904.898C839.281 904.898 834.145 902.847 829.922 898.744C825.22 894.222 822.869 888.143 822.869 880.506C822.869 872.57 825.28 866.206 830.102 861.414C834.414 857.132 839.52 854.99 845.42 854.99C852.278 854.99 857.654 856.922 861.547 860.785C865.32 864.499 867.207 869.425 867.207 875.564C867.207 877.451 866.982 879.188 866.533 880.775ZM845.824 862.178C842.021 862.178 838.831 863.406 836.256 865.861C833.8 868.197 832.408 871.102 832.078 874.576H858.717C858.717 871.132 857.639 868.257 855.482 865.951C853.117 863.436 849.897 862.178 845.824 862.178Z" fill="white"/>
<path d="M589.974 739.376V798.632H580.973V739.376H560V731.075H611.891V739.376H589.974Z" fill="white"/>
<path d="M648.459 774.791H613.714C613.714 780.571 615.259 785.013 618.35 788.118C621.08 790.823 624.591 792.176 628.881 792.176C633.772 792.176 637.852 790.716 641.123 787.795L644.723 794.113C643.403 795.466 641.378 796.634 638.647 797.618C635.227 798.909 631.416 799.554 627.216 799.554C621.155 799.554 616.009 797.449 611.779 793.237C607.068 788.595 604.713 782.354 604.713 774.515C604.713 766.368 607.128 759.835 611.959 754.916C616.28 750.52 621.395 748.322 627.306 748.322C634.177 748.322 639.562 750.305 643.463 754.27C647.243 758.083 649.134 763.14 649.134 769.442C649.134 771.379 648.909 773.162 648.459 774.791ZM627.711 755.7C623.9 755.7 620.705 756.96 618.125 759.481C615.664 761.879 614.269 764.861 613.939 768.427H640.628C640.628 764.892 639.547 761.941 637.387 759.574C635.017 756.991 631.791 755.7 627.711 755.7Z" fill="white"/>
<path d="M694.544 753.256L690.314 759.435C689.444 758.544 687.898 757.698 685.678 756.899C683.488 756.1 681.328 755.7 679.197 755.7C674.547 755.7 670.856 757.375 668.126 760.726C665.396 764.047 664.03 768.612 664.03 774.422C664.03 780.202 665.426 784.613 668.216 787.657C671.006 790.67 674.877 792.176 679.827 792.176C683.668 792.176 687.538 790.654 691.439 787.611L694.814 794.989C690.224 798.033 684.538 799.554 677.757 799.554C671.186 799.554 665.756 797.295 661.465 792.776C657.175 788.256 655.029 782.139 655.029 774.422C655.029 766.552 657.25 760.235 661.69 755.469C666.161 750.704 672.266 748.322 680.007 748.322C682.498 748.322 685.198 748.86 688.108 749.936C691.019 751.012 693.164 752.118 694.544 753.256Z" fill="white"/>
<path d="M733.519 798.632V767.597C733.519 763.908 732.634 761.003 730.864 758.882C729.094 756.761 726.603 755.7 723.393 755.7C721.323 755.7 719.237 756.33 717.137 757.591C715.067 758.82 713.477 760.265 712.366 761.925V798.632H703.815V729H712.366V754.685C713.507 752.872 715.337 751.365 717.857 750.166C720.407 748.937 723.033 748.322 725.733 748.322C730.834 748.322 734.824 750.043 737.705 753.487C740.615 756.93 742.07 761.633 742.07 767.597V798.632H733.519Z" fill="white"/>
<path d="M783.88 798.632V769.903C783.88 764.646 783.1 760.972 781.54 758.882C780.01 756.761 777.43 755.7 773.799 755.7C771.849 755.7 769.809 756.299 767.678 757.498C765.548 758.697 763.913 760.173 762.773 761.925V798.632H754.222V749.244H760.072L762.773 755.608C765.593 750.75 770.199 748.322 776.589 748.322C787.151 748.322 792.431 754.901 792.431 768.059V798.632H783.88Z" fill="white"/>
<path d="M801.478 773.823C801.478 766.199 803.473 760.05 807.463 755.377C811.484 750.674 816.764 748.322 823.305 748.322C830.206 748.322 835.562 750.581 839.372 755.101C843.183 759.589 845.088 765.83 845.088 773.823C845.088 781.785 843.138 788.072 839.237 792.683C835.337 797.264 830.026 799.554 823.305 799.554C816.434 799.554 811.079 797.233 807.238 792.591C803.398 787.949 801.478 781.693 801.478 773.823ZM810.479 773.823C810.479 786.212 814.754 792.407 823.305 792.407C827.296 792.407 830.416 790.747 832.666 787.426C834.947 784.106 836.087 779.572 836.087 773.823C836.087 761.587 831.826 755.469 823.305 755.469C819.405 755.469 816.284 757.099 813.944 760.358C811.634 763.616 810.479 768.105 810.479 773.823Z" fill="white"/>
<path d="M854.809 784.66V729H863.36V783.184C863.36 785.828 864.095 787.918 865.566 789.455C867.066 790.962 869.016 791.715 871.416 791.715V799.554C860.345 799.554 854.809 794.589 854.809 784.66Z" fill="white"/>
<path d="M878.167 773.823C878.167 766.199 880.162 760.05 884.153 755.377C888.173 750.674 893.454 748.322 899.995 748.322C906.896 748.322 912.251 750.581 916.062 755.101C919.872 759.589 921.778 765.83 921.778 773.823C921.778 781.785 919.827 788.072 915.927 792.683C912.026 797.264 906.716 799.554 899.995 799.554C893.124 799.554 887.768 797.233 883.928 792.591C880.087 787.949 878.167 781.693 878.167 773.823ZM887.168 773.823C887.168 786.212 891.444 792.407 899.995 792.407C903.985 792.407 907.106 790.747 909.356 787.426C911.636 784.106 912.776 779.572 912.776 773.823C912.776 761.587 908.516 755.469 899.995 755.469C896.094 755.469 892.974 757.099 890.634 760.358C888.323 763.616 887.168 768.105 887.168 773.823Z" fill="white"/>
<path d="M929.068 812.144L933.704 805.134C938.685 808.547 943.275 810.253 947.476 810.253C951.346 810.253 954.392 809.561 956.612 808.178C958.862 806.825 959.987 805.134 959.987 803.105C959.987 799.109 957.167 797.11 951.526 797.11C950.566 797.11 948.826 797.356 946.306 797.848C943.785 798.34 941.82 798.586 940.41 798.586C933.569 798.586 930.149 795.942 930.149 790.654C930.149 789.025 930.944 787.549 932.534 786.227C934.154 784.906 936.149 783.953 938.52 783.368C931.739 780.11 928.348 774.453 928.348 766.398C928.348 761.234 930.104 756.93 933.614 753.487C937.124 750.043 941.46 748.322 946.621 748.322C951.361 748.322 955.067 749.321 957.737 751.319L962.013 746.062L967.593 751.458L962.463 755.423C964.653 758.344 965.748 762.156 965.748 766.86C965.748 771.84 964.233 776.021 961.202 779.403C958.172 782.784 954.197 784.721 949.276 785.213L942.21 785.951C941.37 786.043 940.245 786.381 938.835 786.965C937.425 787.519 936.719 788.256 936.719 789.179C936.719 790.439 938.19 791.069 941.13 791.069C942.42 791.069 944.43 790.839 947.161 790.378C949.891 789.886 951.916 789.64 953.237 789.64C957.977 789.64 961.668 790.808 964.308 793.145C966.978 795.45 968.313 798.663 968.313 802.782C968.313 807.332 966.318 811.006 962.328 813.804C958.367 816.601 953.342 818 947.251 818C944.13 818 940.845 817.431 937.395 816.294C933.944 815.156 931.169 813.773 929.068 812.144ZM947.206 755.377C944.235 755.377 941.805 756.453 939.915 758.605C938.055 760.757 937.124 763.37 937.124 766.445C937.124 769.888 938.025 772.747 939.825 775.022C941.655 777.266 944.115 778.388 947.206 778.388C950.236 778.388 952.606 777.297 954.317 775.114C956.027 772.901 956.882 770.011 956.882 766.445C956.882 763.37 955.952 760.757 954.092 758.605C952.261 756.453 949.966 755.377 947.206 755.377Z" fill="white"/>
<path d="M985.911 730.568C987.381 730.568 988.626 731.106 989.646 732.182C990.696 733.227 991.221 734.488 991.221 735.963C991.221 737.47 990.696 738.761 989.646 739.837C988.626 740.882 987.381 741.405 985.911 741.405C984.47 741.405 983.225 740.882 982.175 739.837C981.155 738.761 980.645 737.47 980.645 735.963C980.645 734.457 981.155 733.181 982.175 732.136C983.195 731.091 984.44 730.568 985.911 730.568ZM981.23 798.632V756.622H974.614V749.244H989.781V798.632H981.23Z" fill="white"/>
<path d="M1039.74 753.256L1035.51 759.435C1034.64 758.544 1033.09 757.698 1030.87 756.899C1028.68 756.1 1026.52 755.7 1024.39 755.7C1019.74 755.7 1016.05 757.375 1013.32 760.726C1010.59 764.047 1009.22 768.612 1009.22 774.422C1009.22 780.202 1010.62 784.613 1013.41 787.657C1016.2 790.67 1020.07 792.176 1025.02 792.176C1028.86 792.176 1032.73 790.654 1036.63 787.611L1040.01 794.989C1035.42 798.033 1029.73 799.554 1022.95 799.554C1016.38 799.554 1010.95 797.295 1006.66 792.776C1002.37 788.256 1000.22 782.139 1000.22 774.422C1000.22 766.552 1002.44 760.235 1006.88 755.469C1011.35 750.704 1017.46 748.322 1025.2 748.322C1027.69 748.322 1030.39 748.86 1033.3 749.936C1036.21 751.012 1038.36 752.118 1039.74 753.256Z" fill="white"/>
<path d="M1058.14 790.793H1084.88V798.632H1044.73V796.326L1072.14 757.083H1045.18V749.244H1084.61V751.734L1058.14 790.793Z" fill="white"/>
<path d="M1122.41 798.632V769.903C1122.41 764.646 1121.63 760.972 1120.07 758.882C1118.54 756.761 1115.96 755.7 1112.33 755.7C1110.38 755.7 1108.34 756.299 1106.21 757.498C1104.08 758.697 1102.45 760.173 1101.3 761.925V798.632H1092.75V749.244H1098.6L1101.3 755.608C1104.13 750.75 1108.73 748.322 1115.12 748.322C1125.68 748.322 1130.96 754.901 1130.96 768.059V798.632H1122.41Z" fill="white"/>
<path d="M1161.57 807.025C1160.46 810.161 1158.12 812.774 1154.55 814.864C1151.01 816.955 1147.05 818 1142.67 818V810.161C1146.24 810.161 1149.3 809.3 1151.85 807.578C1154.4 805.887 1155.67 803.812 1155.67 801.353C1155.67 798.647 1155.21 795.988 1154.28 793.375C1153.35 790.731 1152.15 787.473 1150.68 783.599L1137.62 749.244H1146.36L1160.53 787.426L1173.27 749.244H1182L1161.57 807.025Z" fill="white"/>
<path d="M216.492 690V687.754L244.793 632.275H216.941V624.189H257.146V626.436L228.756 681.914H258.135V690H216.492ZM295.914 684.475C292.5 688.757 287.274 690.898 280.236 690.898C276.463 690.898 273.184 689.536 270.398 686.811C267.643 684.055 266.266 680.641 266.266 676.568C266.266 671.687 268.392 667.569 272.645 664.215C276.927 660.831 282.378 659.139 288.996 659.139C290.793 659.139 292.829 659.528 295.105 660.307C295.105 652.52 291.632 648.627 284.684 648.627C279.353 648.627 275.25 650.064 272.375 652.939L268.781 645.797C270.398 644.479 272.63 643.356 275.475 642.428C278.35 641.469 281.09 640.99 283.695 640.99C290.673 640.99 295.734 642.577 298.879 645.752C302.053 648.926 303.641 653.973 303.641 660.891V678.141C303.641 682.363 304.898 685.178 307.414 686.586V690.854C303.94 690.854 301.335 690.359 299.598 689.371C297.891 688.383 296.663 686.751 295.914 684.475ZM295.105 666.371C292.41 665.772 290.523 665.473 289.445 665.473C285.133 665.473 281.614 666.581 278.889 668.797C276.163 671.013 274.801 673.633 274.801 676.658C274.801 681.66 277.751 684.16 283.65 684.16C287.963 684.16 291.781 682.109 295.105 678.006V666.371ZM353.369 645.797L349.146 651.816C348.278 650.948 346.736 650.124 344.52 649.346C342.333 648.567 340.177 648.178 338.051 648.178C333.409 648.178 329.725 649.81 327 653.074C324.275 656.309 322.912 660.756 322.912 666.416C322.912 672.046 324.305 676.344 327.09 679.309C329.875 682.243 333.738 683.711 338.68 683.711C342.513 683.711 346.376 682.229 350.27 679.264L353.639 686.451C349.057 689.416 343.382 690.898 336.613 690.898C330.055 690.898 324.634 688.697 320.352 684.295C316.069 679.893 313.928 673.933 313.928 666.416C313.928 658.749 316.144 652.595 320.576 647.953C325.038 643.311 331.133 640.99 338.859 640.99C341.345 640.99 344.04 641.514 346.945 642.562C349.85 643.611 351.992 644.689 353.369 645.797ZM392.271 690V659.768C392.271 656.174 391.388 653.344 389.621 651.277C387.854 649.211 385.368 648.178 382.164 648.178C380.098 648.178 378.016 648.792 375.92 650.02C373.854 651.217 372.266 652.625 371.158 654.242V690H362.623V622.168H371.158V647.189C372.296 645.423 374.123 643.955 376.639 642.787C379.184 641.589 381.805 640.99 384.5 640.99C389.591 640.99 393.574 642.667 396.449 646.021C399.354 649.376 400.807 653.958 400.807 659.768V690H392.271ZM409.791 665.832C409.791 658.405 411.783 652.415 415.766 647.863C419.779 643.281 425.049 640.99 431.578 640.99C438.466 640.99 443.812 643.191 447.615 647.594C451.419 651.966 453.32 658.046 453.32 665.832C453.32 673.589 451.374 679.713 447.48 684.205C443.587 688.667 438.286 690.898 431.578 690.898C424.72 690.898 419.374 688.637 415.541 684.115C411.708 679.593 409.791 673.499 409.791 665.832ZM418.775 665.832C418.775 677.901 423.043 683.936 431.578 683.936C435.561 683.936 438.676 682.318 440.922 679.084C443.198 675.85 444.336 671.432 444.336 665.832C444.336 653.913 440.083 647.953 431.578 647.953C427.685 647.953 424.57 649.54 422.234 652.715C419.928 655.889 418.775 660.262 418.775 665.832ZM492.852 689.955V686.406C489.887 689.371 485.574 690.854 479.914 690.854C473.895 690.854 469.013 688.697 465.27 684.385C461.526 680.072 459.654 674.322 459.654 667.135C459.654 659.917 461.811 653.763 466.123 648.672C470.436 643.551 475.572 640.99 481.531 640.99C486.503 640.99 490.276 642.158 492.852 644.494V622.168H501.387V689.955H492.852ZM492.852 653.029C490.695 649.795 487.745 648.178 484.002 648.178C479.42 648.178 475.706 649.885 472.861 653.299C470.046 656.713 468.639 661.055 468.639 666.326C468.639 677.916 473.91 683.711 484.451 683.711C485.799 683.711 487.416 683.292 489.303 682.453C491.189 681.585 492.372 680.671 492.852 679.713V653.029ZM543.254 690V662.014C543.254 656.893 542.475 653.314 540.918 651.277C539.391 649.211 536.815 648.178 533.191 648.178C531.245 648.178 529.208 648.762 527.082 649.93C524.956 651.098 523.324 652.535 522.186 654.242V690H513.65V641.889H519.49L522.186 648.088C525.001 643.356 529.598 640.99 535.977 640.99C546.518 640.99 551.789 647.399 551.789 660.217V690H543.254ZM572.768 623.695C574.235 623.695 575.478 624.219 576.496 625.268C577.544 626.286 578.068 627.514 578.068 628.951C578.068 630.419 577.544 631.676 576.496 632.725C575.478 633.743 574.235 634.252 572.768 634.252C571.33 634.252 570.087 633.743 569.039 632.725C568.021 631.676 567.512 630.419 567.512 628.951C567.512 627.484 568.021 626.241 569.039 625.223C570.057 624.204 571.3 623.695 572.768 623.695ZM568.096 690V649.076H561.492V641.889H576.631V690H568.096ZM587.053 665.832C587.053 658.405 589.044 652.415 593.027 647.863C597.04 643.281 602.311 640.99 608.84 640.99C615.728 640.99 621.074 643.191 624.877 647.594C628.68 651.966 630.582 658.046 630.582 665.832C630.582 673.589 628.635 679.713 624.742 684.205C620.849 688.667 615.548 690.898 608.84 690.898C601.982 690.898 596.636 688.637 592.803 684.115C588.969 679.593 587.053 673.499 587.053 665.832ZM596.037 665.832C596.037 677.901 600.305 683.936 608.84 683.936C612.823 683.936 615.938 682.318 618.184 679.084C620.46 675.85 621.598 671.432 621.598 665.832C621.598 653.913 617.345 647.953 608.84 647.953C604.947 647.953 601.832 649.54 599.496 652.715C597.19 655.889 596.037 660.262 596.037 665.832ZM648.146 687.35V708.867H639.611V641.889H648.146V645.842C651.381 642.607 655.289 640.99 659.871 640.99C666.699 640.99 672.015 643.117 675.818 647.369C679.622 651.622 681.523 657.851 681.523 666.057C681.523 673.364 679.607 679.339 675.773 683.98C671.94 688.592 666.4 690.898 659.152 690.898C657.116 690.898 654.93 690.539 652.594 689.82C650.288 689.102 648.805 688.278 648.146 687.35ZM648.146 652.266V680.297C648.686 681.105 649.824 681.884 651.561 682.633C653.298 683.352 654.99 683.711 656.637 683.711C667.238 683.711 672.539 677.721 672.539 665.742C672.539 659.663 671.281 655.215 668.766 652.4C666.25 649.585 662.222 648.178 656.682 648.178C655.484 648.178 654.016 648.597 652.279 649.436C650.542 650.274 649.165 651.217 648.146 652.266ZM687.768 665.832C687.768 658.405 689.759 652.415 693.742 647.863C697.755 643.281 703.026 640.99 709.555 640.99C716.443 640.99 721.788 643.191 725.592 647.594C729.395 651.966 731.297 658.046 731.297 665.832C731.297 673.589 729.35 679.713 725.457 684.205C721.564 688.667 716.263 690.898 709.555 690.898C702.697 690.898 697.351 688.637 693.518 684.115C689.684 679.593 687.768 673.499 687.768 665.832ZM696.752 665.832C696.752 677.901 701.02 683.936 709.555 683.936C713.538 683.936 716.652 682.318 718.898 679.084C721.174 675.85 722.312 671.432 722.312 665.832C722.312 653.913 718.06 647.953 709.555 647.953C705.661 647.953 702.547 649.54 700.211 652.715C697.905 655.889 696.752 660.262 696.752 665.832ZM796.029 690V659.543C796.029 651.966 792.75 648.178 786.191 648.178C784.125 648.178 782.193 648.822 780.396 650.109C778.6 651.367 777.372 652.805 776.713 654.422V690H768.178V655.814C768.178 653.449 767.279 651.592 765.482 650.244C763.715 648.867 761.365 648.178 758.43 648.178C756.723 648.178 754.896 648.837 752.949 650.154C751.033 651.472 749.67 652.924 748.861 654.512V690H740.326V641.889H745.896L748.727 647.459C752.021 643.146 756.139 640.99 761.08 640.99C767.968 640.99 772.79 643.132 775.545 647.414C776.503 645.587 778.285 644.06 780.891 642.832C783.496 641.604 786.176 640.99 788.932 640.99C793.903 640.99 797.751 642.473 800.477 645.438C803.202 648.372 804.564 652.505 804.564 657.836V690H796.029ZM813.549 665.832C813.549 658.405 815.54 652.415 819.523 647.863C823.536 643.281 828.807 640.99 835.336 640.99C842.224 640.99 847.57 643.191 851.373 647.594C855.176 651.966 857.078 658.046 857.078 665.832C857.078 673.589 855.132 679.713 851.238 684.205C847.345 688.667 842.044 690.898 835.336 690.898C828.478 690.898 823.132 688.637 819.299 684.115C815.465 679.593 813.549 673.499 813.549 665.832ZM822.533 665.832C822.533 677.901 826.801 683.936 835.336 683.936C839.319 683.936 842.434 682.318 844.68 679.084C846.956 675.85 848.094 671.432 848.094 665.832C848.094 653.913 843.841 647.953 835.336 647.953C831.443 647.953 828.328 649.54 825.992 652.715C823.686 655.889 822.533 660.262 822.533 665.832ZM892.252 650.109C890.395 648.822 888.523 648.178 886.637 648.178C883.612 648.178 880.962 649.57 878.686 652.355C876.439 655.141 875.316 658.495 875.316 662.418V690H866.781V641.889H875.316V649.57C878.431 643.85 883.058 640.99 889.197 640.99C890.725 640.99 892.926 641.26 895.801 641.799L892.252 650.109ZM898.721 687.125L901.73 679.039C906.492 682.154 910.326 683.711 913.23 683.711C918.501 683.711 921.137 681.495 921.137 677.062C921.137 673.888 918.591 671.163 913.5 668.887C909.577 667.09 906.926 665.727 905.549 664.799C904.201 663.87 903.018 662.822 902 661.654C901.012 660.456 900.263 659.199 899.754 657.881C899.275 656.533 899.035 655.096 899.035 653.568C899.035 649.615 900.473 646.531 903.348 644.314C906.223 642.098 909.981 640.99 914.623 640.99C918.127 640.99 922.544 642.098 927.875 644.314L925.449 652.221C922.065 649.525 918.666 648.178 915.252 648.178C913.215 648.178 911.493 648.657 910.086 649.615C908.708 650.574 908.02 651.786 908.02 653.254C908.02 656.339 909.771 658.674 913.275 660.262L919.385 663.047C923.128 664.754 925.854 666.701 927.561 668.887C929.268 671.073 930.121 673.813 930.121 677.107C930.121 681.42 928.609 684.804 925.584 687.26C922.559 689.686 918.367 690.898 913.006 690.898C907.945 690.898 903.183 689.641 898.721 687.125ZM970.236 690L955.143 665.922L947.686 673.604V690H939.15V622.168H947.686V664.26L966.104 641.889H976.076L960.668 660.172L979.49 690H970.236ZM994.404 623.695C995.872 623.695 997.115 624.219 998.133 625.268C999.181 626.286 999.705 627.514 999.705 628.951C999.705 630.419 999.181 631.676 998.133 632.725C997.115 633.743 995.872 634.252 994.404 634.252C992.967 634.252 991.724 633.743 990.676 632.725C989.658 631.676 989.148 630.419 989.148 628.951C989.148 627.484 989.658 626.241 990.676 625.223C991.694 624.204 992.937 623.695 994.404 623.695ZM989.732 690V649.076H983.129V641.889H998.268V690H989.732Z" fill="white"/>
<path d="M2106.15 33.041H1778.24C1778.24 24.9798 1777.7 60.1637 1778.24 265.384C1778.75 457.161 1903.71 521 2013.06 521H2106.15V477.574H1936.73V93.6295H2106.15V33.041Z" fill="white"/>
<path fill-rule="evenodd" clip-rule="evenodd" d="M1964.17 120.933V450.66H2248V121.063L1964.17 120.933ZM2079.88 142.646V158.119H2139.82V142.646L2125.13 151.618L2109.92 142.646L2094.97 151.618L2079.88 142.646ZM2139.82 193.224V223.128H2112.78C2108.36 223.128 2108.36 230.149 2112.78 230.149H2139.69V338.844H2113.3C2108.36 338.844 2108.62 346.255 2113.3 346.255H2139.69V415.685L2124.87 407.234L2109.79 415.685L2094.97 407.234L2079.88 415.685V368.488H2106.15C2111.22 368.488 2111.22 361.077 2106.15 361.077H2079.88V249.782L2106.15 249.652C2110.96 249.652 2110.96 242.501 2106.15 242.501H2079.88V198.424H2073.64C2070.91 198.424 2070.91 195.044 2073.64 195.044H2076.63C2081.05 195.044 2081.05 187.893 2076.63 187.893H2069.35C2066.75 187.893 2066.75 184.642 2069.35 184.642H2076.63C2080.79 184.642 2080.79 177.361 2076.63 177.361H2074.29C2071.56 177.361 2071.56 174.241 2074.29 174.241H2145.02C2141.59 181.522 2139.82 188.673 2139.82 193.224ZM2151.91 230.149V338.844H2212.11C2214.97 338.844 2219.89 336.712 2219.78 331.303C2219.69 326.362 2215.34 324.334 2207.43 321.942C2190.92 317.911 2181.17 305.56 2180.78 293.728C2180.78 274.615 2206.26 242.501 2224.73 230.539L2225.51 230.149H2151.91ZM2007.46 249.782H2068.31L2068.18 361.077L2048.42 342.095C2063.09 317.651 2038.28 302.829 2020.99 295.938L1993.16 285.927L2007.46 249.782ZM2104.72 183.472C2104.72 186.847 2101.98 189.583 2098.61 189.583C2095.23 189.583 2092.5 186.847 2092.5 183.472C2092.5 180.097 2095.23 177.362 2098.61 177.362C2101.98 177.362 2104.72 180.097 2104.72 183.472Z" fill="white"/>
<path d="M1909.32 692.898H1906.49L1890.81 647.527L1876.17 692.898H1873.34L1852.58 626.189H1861.93L1875.13 672.145L1889.6 626.189H1892.74L1907.03 672.055L1920.46 626.189H1929.8L1909.32 692.898ZM1954.87 700.176C1953.76 703.23 1951.43 705.776 1947.86 707.812C1944.33 709.849 1940.38 710.867 1936 710.867V703.23C1939.57 703.23 1942.62 702.392 1945.17 700.715C1947.71 699.068 1948.99 697.046 1948.99 694.65C1948.99 692.015 1948.52 689.424 1947.59 686.879C1946.67 684.303 1945.47 681.129 1944 677.355L1930.97 643.889H1939.69L1953.84 681.084L1966.55 643.889H1975.27L1954.87 700.176ZM2012.37 691.955V688.406C2009.41 691.371 2005.09 692.854 1999.43 692.854C1993.41 692.854 1988.53 690.697 1984.79 686.385C1981.05 682.072 1979.17 676.322 1979.17 669.135C1979.17 661.917 1981.33 655.763 1985.64 650.672C1989.96 645.551 1995.09 642.99 2001.05 642.99C2006.02 642.99 2009.8 644.158 2012.37 646.494V624.168H2020.91V691.955H2012.37ZM2012.37 655.029C2010.21 651.795 2007.26 650.178 2003.52 650.178C1998.94 650.178 1995.23 651.885 1992.38 655.299C1989.57 658.713 1988.16 663.055 1988.16 668.326C1988.16 679.916 1993.43 685.711 2003.97 685.711C2005.32 685.711 2006.94 685.292 2008.82 684.453C2010.71 683.585 2011.89 682.671 2012.37 681.713V655.029ZM2042.29 684.363H2068.97V692H2028.9V689.754L2056.26 651.525H2029.35V643.889H2068.7V646.314L2042.29 684.363ZM2085.64 625.695C2087.11 625.695 2088.35 626.219 2089.37 627.268C2090.42 628.286 2090.94 629.514 2090.94 630.951C2090.94 632.419 2090.42 633.676 2089.37 634.725C2088.35 635.743 2087.11 636.252 2085.64 636.252C2084.2 636.252 2082.96 635.743 2081.91 634.725C2080.89 633.676 2080.38 632.419 2080.38 630.951C2080.38 629.484 2080.89 628.241 2081.91 627.223C2082.93 626.204 2084.17 625.695 2085.64 625.695ZM2080.97 692V651.076H2074.36V643.889H2089.5V692H2080.97ZM2130.25 686.475C2126.83 690.757 2121.61 692.898 2114.57 692.898C2110.79 692.898 2107.52 691.536 2104.73 688.811C2101.98 686.055 2100.6 682.641 2100.6 678.568C2100.6 673.687 2102.72 669.569 2106.98 666.215C2111.26 662.831 2116.71 661.139 2123.33 661.139C2125.12 661.139 2127.16 661.528 2129.44 662.307C2129.44 654.52 2125.96 650.627 2119.02 650.627C2113.68 650.627 2109.58 652.064 2106.71 654.939L2103.11 647.797C2104.73 646.479 2106.96 645.356 2109.81 644.428C2112.68 643.469 2115.42 642.99 2118.03 642.99C2125.01 642.99 2130.07 644.577 2133.21 647.752C2136.39 650.926 2137.97 655.973 2137.97 662.891V680.141C2137.97 684.363 2139.23 687.178 2141.75 688.586V692.854C2138.27 692.854 2135.67 692.359 2133.93 691.371C2132.22 690.383 2130.99 688.751 2130.25 686.475ZM2129.44 668.371C2126.74 667.772 2124.86 667.473 2123.78 667.473C2119.46 667.473 2115.95 668.581 2113.22 670.797C2110.5 673.013 2109.13 675.633 2109.13 678.658C2109.13 683.66 2112.08 686.16 2117.98 686.16C2122.29 686.16 2126.11 684.109 2129.44 680.006V668.371ZM2152.35 678.389V661.229L2147.54 664.553V658.084L2152.35 654.85V624.168H2160.88V649.1C2161.6 648.62 2163.68 647.273 2167.13 645.057V650.941L2160.88 655.299V676.951C2160.88 679.527 2161.62 681.563 2163.08 683.061C2164.58 684.528 2166.53 685.262 2168.92 685.262V692.898C2157.87 692.898 2152.35 688.062 2152.35 678.389Z" fill="white"/>
<path d="M1692.92 743.557V801.281H1683.93V743.557H1663V735.471H1714.79V743.557H1692.92Z" fill="white"/>
<path d="M1749.56 777.607H1714.88C1714.88 783.238 1716.43 787.565 1719.51 790.59C1722.24 793.225 1725.74 794.543 1730.02 794.543C1734.9 794.543 1738.98 793.12 1742.24 790.275L1745.84 796.43C1744.52 797.747 1742.5 798.885 1739.77 799.844C1736.36 801.102 1732.55 801.73 1728.36 801.73C1722.31 801.73 1717.18 799.679 1712.95 795.576C1708.25 791.054 1705.9 784.975 1705.9 777.338C1705.9 769.402 1708.31 763.038 1713.13 758.246C1717.45 753.964 1722.55 751.822 1728.45 751.822C1735.31 751.822 1740.68 753.754 1744.58 757.617C1748.35 761.331 1750.24 766.257 1750.24 772.396C1750.24 774.283 1750.01 776.02 1749.56 777.607ZM1728.86 759.01C1725.05 759.01 1721.86 760.238 1719.29 762.693C1716.83 765.029 1715.44 767.934 1715.11 771.408H1741.75C1741.75 767.964 1740.67 765.089 1738.51 762.783C1736.15 760.268 1732.93 759.01 1728.86 759.01Z" fill="white"/>
<path d="M1795.56 756.629L1791.34 762.648C1790.47 761.78 1788.93 760.956 1786.71 760.178C1784.53 759.399 1782.37 759.01 1780.25 759.01C1775.6 759.01 1771.92 760.642 1769.2 763.906C1766.47 767.141 1765.11 771.588 1765.11 777.248C1765.11 782.878 1766.5 787.176 1769.29 790.141C1772.07 793.076 1775.93 794.543 1780.88 794.543C1784.71 794.543 1788.57 793.061 1792.46 790.096L1795.83 797.283C1791.25 800.248 1785.58 801.73 1778.81 801.73C1772.25 801.73 1766.83 799.529 1762.55 795.127C1758.26 790.725 1756.12 784.765 1756.12 777.248C1756.12 769.581 1758.34 763.427 1762.77 758.785C1767.23 754.143 1773.33 751.822 1781.05 751.822C1783.54 751.822 1786.24 752.346 1789.14 753.395C1792.05 754.443 1794.19 755.521 1795.56 756.629Z" fill="white"/>
<path d="M1834.47 800.832V770.6C1834.47 767.006 1833.58 764.176 1831.82 762.109C1830.05 760.043 1827.56 759.01 1824.36 759.01C1822.29 759.01 1820.21 759.624 1818.12 760.852C1816.05 762.049 1814.46 763.457 1813.35 765.074V800.832H1804.82V733H1813.35V758.021C1814.49 756.255 1816.32 754.787 1818.83 753.619C1821.38 752.421 1824 751.822 1826.7 751.822C1831.79 751.822 1835.77 753.499 1838.64 756.854C1841.55 760.208 1843 764.79 1843 770.6V800.832H1834.47Z" fill="white"/>
<path d="M1884.73 800.832V772.846C1884.73 767.725 1883.96 764.146 1882.4 762.109C1880.87 760.043 1878.3 759.01 1874.67 759.01C1872.73 759.01 1870.69 759.594 1868.56 760.762C1866.44 761.93 1864.8 763.367 1863.67 765.074V800.832H1855.13V752.721H1860.97L1863.67 758.92C1866.48 754.188 1871.08 751.822 1877.46 751.822C1888 751.822 1893.27 758.231 1893.27 771.049V800.832H1884.73Z" fill="white"/>
<path d="M1914.25 734.527C1915.72 734.527 1916.96 735.051 1917.98 736.1C1919.02 737.118 1919.55 738.346 1919.55 739.783C1919.55 741.251 1919.02 742.508 1917.98 743.557C1916.96 744.575 1915.72 745.084 1914.25 745.084C1912.81 745.084 1911.57 744.575 1910.52 743.557C1909.5 742.508 1908.99 741.251 1908.99 739.783C1908.99 738.316 1909.5 737.073 1910.52 736.055C1911.54 735.036 1912.78 734.527 1914.25 734.527ZM1909.58 800.832V759.908H1902.97V752.721H1918.11V800.832H1909.58Z" fill="white"/>
<path d="M1962.76 800.832L1947.67 776.754L1940.21 784.436V800.832H1931.68V733H1940.21V775.092L1958.63 752.721H1968.6L1953.2 771.004L1972.02 800.832H1962.76Z" fill="white"/>
<path d="M1986.93 734.527C1988.4 734.527 1989.64 735.051 1990.66 736.1C1991.71 737.118 1992.23 738.346 1992.23 739.783C1992.23 741.251 1991.71 742.508 1990.66 743.557C1989.64 744.575 1988.4 745.084 1986.93 745.084C1985.49 745.084 1984.25 744.575 1983.2 743.557C1982.18 742.508 1981.68 741.251 1981.68 739.783C1981.68 738.316 1982.18 737.073 1983.2 736.055C1984.22 735.036 1985.46 734.527 1986.93 734.527ZM1982.26 800.832V759.908H1975.66V752.721H1990.79V800.832H1982.26Z" fill="white"/>
<path d="M2082.35 800.832L2074.53 758.561L2060.15 801.73H2057.91L2043.13 758.561L2035.49 800.832H2026.96L2039.27 735.021H2043.35L2059.03 783.043L2073.5 735.021H2077.54L2090.88 800.832H2082.35Z" fill="white"/>
<path d="M2094.29 776.664C2094.29 769.237 2096.29 763.247 2100.27 758.695C2104.28 754.113 2109.55 751.822 2116.08 751.822C2122.97 751.822 2128.32 754.023 2132.12 758.426C2135.92 762.798 2137.82 768.878 2137.82 776.664C2137.82 784.421 2135.88 790.545 2131.98 795.037C2128.09 799.499 2122.79 801.73 2116.08 801.73C2109.22 801.73 2103.88 799.469 2100.04 794.947C2096.21 790.425 2094.29 784.331 2094.29 776.664ZM2103.28 776.664C2103.28 788.733 2107.55 794.768 2116.08 794.768C2120.07 794.768 2123.18 793.15 2125.43 789.916C2127.7 786.682 2128.84 782.264 2128.84 776.664C2128.84 764.745 2124.59 758.785 2116.08 758.785C2112.19 758.785 2109.07 760.372 2106.74 763.547C2104.43 766.721 2103.28 771.094 2103.28 776.664Z" fill="white"/>
<path d="M2173 760.941C2171.14 759.654 2169.27 759.01 2167.38 759.01C2164.36 759.01 2161.71 760.402 2159.43 763.188C2157.19 765.973 2156.06 769.327 2156.06 773.25V800.832H2147.53V752.721H2156.06V760.402C2159.18 754.682 2163.8 751.822 2169.94 751.822C2171.47 751.822 2173.67 752.092 2176.55 752.631L2173 760.941Z" fill="white"/>
<path d="M2179.47 797.957L2182.48 789.871C2187.24 792.986 2191.07 794.543 2193.98 794.543C2199.25 794.543 2201.88 792.327 2201.88 787.895C2201.88 784.72 2199.34 781.995 2194.25 779.719C2190.32 777.922 2187.67 776.559 2186.29 775.631C2184.95 774.702 2183.76 773.654 2182.75 772.486C2181.76 771.288 2181.01 770.031 2180.5 768.713C2180.02 767.365 2179.78 765.928 2179.78 764.4C2179.78 760.447 2181.22 757.363 2184.09 755.146C2186.97 752.93 2190.73 751.822 2195.37 751.822C2198.87 751.822 2203.29 752.93 2208.62 755.146L2206.2 763.053C2202.81 760.357 2199.41 759.01 2196 759.01C2193.96 759.01 2192.24 759.489 2190.83 760.447C2189.45 761.406 2188.77 762.618 2188.77 764.086C2188.77 767.171 2190.52 769.507 2194.02 771.094L2200.13 773.879C2203.87 775.586 2206.6 777.533 2208.31 779.719C2210.01 781.905 2210.87 784.645 2210.87 787.939C2210.87 792.252 2209.35 795.636 2206.33 798.092C2203.31 800.518 2199.11 801.73 2193.75 801.73C2188.69 801.73 2183.93 800.473 2179.47 797.957Z" fill="white"/>
<path d="M2250.98 800.832L2235.89 776.754L2228.43 784.436V800.832H2219.9V733H2228.43V775.092L2246.85 752.721H2256.82L2241.41 771.004L2260.24 800.832H2250.98Z" fill="white"/>
<path d="M2275.15 734.527C2276.62 734.527 2277.86 735.051 2278.88 736.1C2279.93 737.118 2280.45 738.346 2280.45 739.783C2280.45 741.251 2279.93 742.508 2278.88 743.557C2277.86 744.575 2276.62 745.084 2275.15 745.084C2273.71 745.084 2272.47 744.575 2271.42 743.557C2270.4 742.508 2269.89 741.251 2269.89 739.783C2269.89 738.316 2270.4 737.073 2271.42 736.055C2272.44 735.036 2273.68 734.527 2275.15 734.527ZM2270.48 800.832V759.908H2263.88V752.721H2279.01V800.832H2270.48Z" fill="white"/>
<path d="M2333.1 777.607H2298.42C2298.42 783.238 2299.96 787.565 2303.05 790.59C2305.77 793.225 2309.28 794.543 2313.56 794.543C2318.44 794.543 2322.51 793.12 2325.78 790.275L2329.37 796.43C2328.05 797.747 2326.03 798.885 2323.31 799.844C2319.89 801.102 2316.09 801.73 2311.9 801.73C2305.85 801.73 2300.71 799.679 2296.49 795.576C2291.79 791.054 2289.44 784.975 2289.44 777.338C2289.44 769.402 2291.85 763.038 2296.67 758.246C2300.98 753.964 2306.09 751.822 2311.99 751.822C2318.84 751.822 2324.22 753.754 2328.11 757.617C2331.89 761.331 2333.77 766.257 2333.77 772.396C2333.77 774.283 2333.55 776.02 2333.1 777.607ZM2312.39 759.01C2308.59 759.01 2305.4 760.238 2302.82 762.693C2300.37 765.029 2298.97 767.934 2298.64 771.408H2325.28C2325.28 767.964 2324.21 765.089 2322.05 762.783C2319.68 760.268 2316.46 759.01 2312.39 759.01Z" fill="white"/>
<path d="M2355.96 734.527C2357.43 734.527 2358.68 735.051 2359.69 736.1C2360.74 737.118 2361.27 738.346 2361.27 739.783C2361.27 741.251 2360.74 742.508 2359.69 743.557C2358.68 744.575 2357.43 745.084 2355.96 745.084C2354.5 745.084 2353.25 744.575 2352.24 743.557C2351.22 742.508 2350.71 741.251 2350.71 739.783C2350.71 738.316 2351.22 737.073 2352.24 736.055C2353.25 735.036 2354.5 734.527 2355.96 734.527ZM2337.55 819.699V812.062C2343.42 812.062 2347.43 811.164 2349.59 809.367C2351.77 807.6 2352.87 804.68 2352.87 800.607V759.908H2343.3V752.721H2361.4V800.428C2361.4 807.046 2359.45 811.913 2355.56 815.027C2351.67 818.142 2345.66 819.699 2337.55 819.699Z" fill="white"/>
<path d="M1800.28 840C1801.74 840 1802.99 840.524 1804 841.572C1805.05 842.59 1805.58 843.818 1805.58 845.256C1805.58 846.723 1805.05 847.981 1804 849.029C1802.99 850.048 1801.74 850.557 1800.28 850.557C1798.84 850.557 1797.6 850.048 1796.55 849.029C1795.53 847.981 1795.02 846.723 1795.02 845.256C1795.02 843.788 1795.53 842.546 1796.55 841.527C1797.57 840.509 1798.81 840 1800.28 840ZM1795.6 906.305V865.381H1789V858.193H1804.14V906.305H1795.6Z" fill="white"/>
<path d="M1857.49 848.58V906.305H1848.51V848.58H1827.58V840.494H1879.37V848.58H1857.49Z" fill="white"/>
<path d="M1899.24 866.414C1897.38 865.126 1895.51 864.482 1893.62 864.482C1890.6 864.482 1887.95 865.875 1885.67 868.66C1883.43 871.445 1882.3 874.799 1882.3 878.723V906.305H1873.77V858.193H1882.3V865.875C1885.42 860.155 1890.04 857.295 1896.18 857.295C1897.71 857.295 1899.91 857.564 1902.79 858.104L1899.24 866.414Z" fill="white"/>
<path d="M1936.03 900.779C1932.62 905.062 1927.39 907.203 1920.35 907.203C1916.58 907.203 1913.3 905.84 1910.51 903.115C1907.76 900.36 1906.38 896.946 1906.38 892.873C1906.38 887.992 1908.51 883.874 1912.76 880.52C1917.04 877.135 1922.49 875.443 1929.11 875.443C1930.91 875.443 1932.94 875.833 1935.22 876.611C1935.22 868.825 1931.75 864.932 1924.8 864.932C1919.47 864.932 1915.37 866.369 1912.49 869.244L1908.9 862.102C1910.51 860.784 1912.74 859.661 1915.59 858.732C1918.46 857.774 1921.21 857.295 1923.81 857.295C1930.79 857.295 1935.85 858.882 1938.99 862.057C1942.17 865.231 1943.76 870.277 1943.76 877.195V894.445C1943.76 898.668 1945.01 901.483 1947.53 902.891V907.158C1944.06 907.158 1941.45 906.664 1939.71 905.676C1938.01 904.688 1936.78 903.055 1936.03 900.779ZM1935.22 882.676C1932.53 882.077 1930.64 881.777 1929.56 881.777C1925.25 881.777 1921.73 882.885 1919 885.102C1916.28 887.318 1914.92 889.938 1914.92 892.963C1914.92 897.964 1917.87 900.465 1923.77 900.465C1928.08 900.465 1931.9 898.413 1935.22 894.311V882.676Z" fill="white"/>
<path d="M1986.79 906.305V878.318C1986.79 873.197 1986.01 869.618 1984.46 867.582C1982.93 865.516 1980.35 864.482 1976.73 864.482C1974.78 864.482 1972.75 865.066 1970.62 866.234C1968.49 867.402 1966.86 868.84 1965.72 870.547V906.305H1957.19V858.193H1963.03L1965.72 864.393C1968.54 859.661 1973.13 857.295 1979.51 857.295C1990.06 857.295 1995.33 863.704 1995.33 876.521V906.305H1986.79Z" fill="white"/>
<path d="M2004.36 903.43L2007.37 895.344C2012.13 898.458 2015.96 900.016 2018.87 900.016C2024.14 900.016 2026.77 897.799 2026.77 893.367C2026.77 890.193 2024.23 887.467 2019.13 885.191C2015.21 883.395 2012.56 882.032 2011.18 881.104C2009.84 880.175 2008.65 879.127 2007.63 877.959C2006.65 876.761 2005.9 875.503 2005.39 874.186C2004.91 872.838 2004.67 871.4 2004.67 869.873C2004.67 865.92 2006.11 862.835 2008.98 860.619C2011.86 858.403 2015.62 857.295 2020.26 857.295C2023.76 857.295 2028.18 858.403 2033.51 860.619L2031.08 868.525C2027.7 865.83 2024.3 864.482 2020.89 864.482C2018.85 864.482 2017.13 864.962 2015.72 865.92C2014.34 866.878 2013.65 868.091 2013.65 869.559C2013.65 872.643 2015.41 874.979 2018.91 876.566L2025.02 879.352C2028.76 881.059 2031.49 883.005 2033.2 885.191C2034.9 887.378 2035.76 890.118 2035.76 893.412C2035.76 897.725 2034.24 901.109 2031.22 903.564C2028.19 905.99 2024 907.203 2018.64 907.203C2013.58 907.203 2008.82 905.945 2004.36 903.43Z" fill="white"/>
<path d="M2053.32 903.654V925.172H2044.79V858.193H2053.32V862.146C2056.55 858.912 2060.46 857.295 2065.04 857.295C2071.87 857.295 2077.19 859.421 2080.99 863.674C2084.8 867.926 2086.7 874.156 2086.7 882.361C2086.7 889.669 2084.78 895.643 2080.95 900.285C2077.11 904.897 2071.57 907.203 2064.33 907.203C2062.29 907.203 2060.1 906.844 2057.77 906.125C2055.46 905.406 2053.98 904.583 2053.32 903.654ZM2053.32 868.57V896.602C2053.86 897.41 2055 898.189 2056.73 898.938C2058.47 899.656 2060.16 900.016 2061.81 900.016C2072.41 900.016 2077.71 894.026 2077.71 882.047C2077.71 875.967 2076.46 871.52 2073.94 868.705C2071.42 865.89 2067.4 864.482 2061.86 864.482C2060.66 864.482 2059.19 864.902 2057.45 865.74C2055.72 866.579 2054.34 867.522 2053.32 868.57Z" fill="white"/>
<path d="M2092.94 882.137C2092.94 874.71 2094.93 868.72 2098.92 864.168C2102.93 859.586 2108.2 857.295 2114.73 857.295C2121.62 857.295 2126.96 859.496 2130.77 863.898C2134.57 868.271 2136.47 874.35 2136.47 882.137C2136.47 889.893 2134.52 896.018 2130.63 900.51C2126.74 904.972 2121.44 907.203 2114.73 907.203C2107.87 907.203 2102.52 904.942 2098.69 900.42C2094.86 895.898 2092.94 889.803 2092.94 882.137ZM2101.93 882.137C2101.93 894.206 2106.19 900.24 2114.73 900.24C2118.71 900.24 2121.83 898.623 2124.07 895.389C2126.35 892.154 2127.49 887.737 2127.49 882.137C2127.49 870.217 2123.23 864.258 2114.73 864.258C2110.84 864.258 2107.72 865.845 2105.38 869.02C2103.08 872.194 2101.93 876.566 2101.93 882.137Z" fill="white"/>
<path d="M2171.64 866.414C2169.79 865.126 2167.92 864.482 2166.03 864.482C2163 864.482 2160.35 865.875 2158.08 868.66C2155.83 871.445 2154.71 874.799 2154.71 878.723V906.305H2146.17V858.193H2154.71V865.875C2157.82 860.155 2162.45 857.295 2168.59 857.295C2170.12 857.295 2172.32 857.564 2175.19 858.104L2171.64 866.414Z" fill="white"/>
<path d="M2184.31 864.932H2178.74V858.193H2184.31V848.131L2192.85 844.852V858.193H2206.05V864.932H2192.85V888.83C2192.85 892.873 2193.52 895.748 2194.87 897.455C2196.25 899.162 2198.45 900.016 2201.47 900.016C2203.66 900.016 2205.92 899.462 2208.26 898.354L2209.51 905.855C2205.98 906.754 2202.1 907.203 2197.88 907.203C2194.08 907.203 2190.86 905.796 2188.22 902.98C2185.62 900.135 2184.31 896.557 2184.31 892.244V864.932Z" fill="white"/>
<path d="M2225.82 858.193V888.875C2225.82 896.302 2229.04 900.016 2235.48 900.016C2238.29 900.016 2240.87 899.207 2243.21 897.59C2245.54 895.973 2247.08 894.101 2247.83 891.975V858.193H2256.37V906.305H2247.83V899.656C2246.87 901.543 2244.94 903.28 2242.04 904.867C2239.16 906.424 2236.35 907.203 2233.59 907.203C2228.32 907.203 2224.28 905.691 2221.46 902.666C2218.68 899.641 2217.29 895.344 2217.29 889.773V858.193H2225.82Z" fill="white"/>
</svg>
