<svg width="699" height="894" viewBox="0 0 699 894" fill="none" xmlns="http://www.w3.org/2000/svg">
<path d="M443.148 1.04098H115.242C115.242 -7.02016 114.697 28.1637 115.242 233.384C115.751 425.161 240.71 489 350.055 489H443.148V445.574H273.735V61.6295H443.148V1.04098Z" fill="white"/>
<path fill-rule="evenodd" clip-rule="evenodd" d="M301.168 88.9333V418.66H584.998V89.0634L301.168 88.9333ZM416.885 110.646V126.119H476.823V110.646L462.131 119.618L446.919 110.646L431.967 119.618L416.885 110.646ZM476.823 161.224V191.128H449.779C445.359 191.128 445.359 198.149 449.779 198.149H476.693V306.844H450.299C445.359 306.844 445.619 314.255 450.299 314.255H476.693V383.685L461.871 375.234L446.789 383.685L431.967 375.234L416.885 383.685V336.488H443.148C448.219 336.488 448.219 329.077 443.148 329.077H416.885V217.782L443.148 217.652C447.959 217.652 447.959 210.501 443.148 210.501H416.885V166.424H410.644C407.913 166.424 407.913 163.044 410.644 163.044H413.634C418.055 163.044 418.055 155.893 413.634 155.893H406.353C403.753 155.893 403.753 152.642 406.353 152.642H413.634C417.795 152.642 417.795 145.361 413.634 145.361H411.294C408.563 145.361 408.563 142.241 411.294 142.241H482.024C478.591 149.522 476.823 156.673 476.823 161.224ZM488.915 198.149V306.844H549.113C551.974 306.844 556.888 304.712 556.784 299.303C556.689 294.362 552.338 292.334 544.433 289.942C527.92 285.911 518.169 273.56 517.779 261.728C517.779 242.615 543.263 210.501 561.725 198.539L562.505 198.149H488.915ZM344.464 217.782H405.313L405.183 329.077L385.42 310.095C400.086 285.651 375.279 270.829 357.986 263.938L330.162 253.927L344.464 217.782ZM441.718 151.472C441.718 154.847 438.982 157.583 435.607 157.583C432.232 157.583 429.496 154.847 429.496 151.472C429.496 148.097 432.232 145.362 435.607 145.362C438.982 145.362 441.718 148.097 441.718 151.472Z" fill="white"/>
<path d="M246.32 660.898H243.49L227.812 615.527L213.168 660.898H210.338L189.584 594.189H198.928L212.135 640.145L226.6 594.189H229.744L244.029 640.055L257.461 594.189H266.805L246.32 660.898ZM291.871 668.176C290.763 671.23 288.427 673.776 284.863 675.812C281.329 677.849 277.376 678.867 273.004 678.867V671.23C276.568 671.23 279.622 670.392 282.168 668.715C284.714 667.068 285.986 665.046 285.986 662.65C285.986 660.015 285.522 657.424 284.594 654.879C283.665 652.303 282.467 649.129 281 645.355L267.973 611.889H276.688L290.838 649.084L303.551 611.889H312.266L291.871 668.176ZM349.371 659.955V656.406C346.406 659.371 342.094 660.854 336.434 660.854C330.414 660.854 325.533 658.697 321.789 654.385C318.046 650.072 316.174 644.322 316.174 637.135C316.174 629.917 318.33 623.763 322.643 618.672C326.955 613.551 332.091 610.99 338.051 610.99C343.022 610.99 346.796 612.158 349.371 614.494V592.168H357.906V659.955H349.371ZM349.371 623.029C347.215 619.795 344.265 618.178 340.521 618.178C335.939 618.178 332.226 619.885 329.381 623.299C326.566 626.713 325.158 631.055 325.158 636.326C325.158 647.916 330.429 653.711 340.971 653.711C342.318 653.711 343.936 653.292 345.822 652.453C347.709 651.585 348.892 650.671 349.371 649.713V623.029ZM379.289 652.363H405.973V660H365.902V657.754L393.26 619.525H366.352V611.889H405.703V614.314L379.289 652.363ZM422.639 593.695C424.106 593.695 425.349 594.219 426.367 595.268C427.415 596.286 427.939 597.514 427.939 598.951C427.939 600.419 427.415 601.676 426.367 602.725C425.349 603.743 424.106 604.252 422.639 604.252C421.201 604.252 419.958 603.743 418.91 602.725C417.892 601.676 417.383 600.419 417.383 598.951C417.383 597.484 417.892 596.241 418.91 595.223C419.928 594.204 421.171 593.695 422.639 593.695ZM417.967 660V619.076H411.363V611.889H426.502V660H417.967ZM467.246 654.475C463.832 658.757 458.606 660.898 451.568 660.898C447.795 660.898 444.516 659.536 441.73 656.811C438.975 654.055 437.598 650.641 437.598 646.568C437.598 641.687 439.724 637.569 443.977 634.215C448.259 630.831 453.71 629.139 460.328 629.139C462.125 629.139 464.161 629.528 466.438 630.307C466.438 622.52 462.964 618.627 456.016 618.627C450.685 618.627 446.582 620.064 443.707 622.939L440.113 615.797C441.73 614.479 443.962 613.356 446.807 612.428C449.682 611.469 452.422 610.99 455.027 610.99C462.005 610.99 467.066 612.577 470.211 615.752C473.385 618.926 474.973 623.973 474.973 630.891V648.141C474.973 652.363 476.23 655.178 478.746 656.586V660.854C475.272 660.854 472.667 660.359 470.93 659.371C469.223 658.383 467.995 656.751 467.246 654.475ZM466.438 636.371C463.742 635.772 461.855 635.473 460.777 635.473C456.465 635.473 452.946 636.581 450.221 638.797C447.495 641.013 446.133 643.633 446.133 646.658C446.133 651.66 449.083 654.16 454.982 654.16C459.295 654.16 463.113 652.109 466.438 648.006V636.371ZM489.348 646.389V629.229L484.541 632.553V626.084L489.348 622.85V592.168H497.883V617.1C498.602 616.62 500.683 615.273 504.127 613.057V618.941L497.883 623.299V644.951C497.883 647.527 498.617 649.563 500.084 651.061C501.581 652.528 503.528 653.262 505.924 653.262V660.898C494.873 660.898 489.348 656.062 489.348 646.389Z" fill="white"/>
<path d="M29.918 711.557V769.281H20.9336V711.557H0V703.471H51.7949V711.557H29.918Z" fill="white"/>
<path d="M86.5645 745.607H51.8848C51.8848 751.238 53.4271 755.565 56.5117 758.59C59.237 761.225 62.7409 762.543 67.0234 762.543C71.9049 762.543 75.9779 761.12 79.2422 758.275L82.8359 764.43C81.5182 765.747 79.4967 766.885 76.7715 767.844C73.3574 769.102 69.554 769.73 65.3613 769.73C59.3118 769.73 54.1758 767.679 49.9531 763.576C45.2513 759.054 42.9004 752.975 42.9004 745.338C42.9004 737.402 45.3112 731.038 50.1328 726.246C54.4453 721.964 59.5514 719.822 65.4512 719.822C72.3092 719.822 77.6849 721.754 81.5781 725.617C85.3516 729.331 87.2383 734.257 87.2383 740.396C87.2383 742.283 87.0137 744.02 86.5645 745.607ZM65.8555 727.01C62.0521 727.01 58.8626 728.238 56.2871 730.693C53.8314 733.029 52.4388 735.934 52.1094 739.408H78.748C78.748 735.964 77.6699 733.089 75.5137 730.783C73.1478 728.268 69.9284 727.01 65.8555 727.01Z" fill="white"/>
<path d="M132.564 724.629L128.342 730.648C127.473 729.78 125.931 728.956 123.715 728.178C121.529 727.399 119.372 727.01 117.246 727.01C112.604 727.01 108.921 728.642 106.195 731.906C103.47 735.141 102.107 739.588 102.107 745.248C102.107 750.878 103.5 755.176 106.285 758.141C109.07 761.076 112.934 762.543 117.875 762.543C121.708 762.543 125.572 761.061 129.465 758.096L132.834 765.283C128.252 768.248 122.577 769.73 115.809 769.73C109.25 769.73 103.829 767.529 99.5469 763.127C95.2643 758.725 93.123 752.765 93.123 745.248C93.123 737.581 95.3392 731.427 99.7715 726.785C104.234 722.143 110.328 719.822 118.055 719.822C120.54 719.822 123.236 720.346 126.141 721.395C129.046 722.443 131.187 723.521 132.564 724.629Z" fill="white"/>
<path d="M171.467 768.832V738.6C171.467 735.006 170.583 732.176 168.816 730.109C167.049 728.043 164.564 727.01 161.359 727.01C159.293 727.01 157.212 727.624 155.115 728.852C153.049 730.049 151.462 731.457 150.354 733.074V768.832H141.818V701H150.354V726.021C151.492 724.255 153.318 722.787 155.834 721.619C158.38 720.421 161 719.822 163.695 719.822C168.786 719.822 172.77 721.499 175.645 724.854C178.549 728.208 180.002 732.79 180.002 738.6V768.832H171.467Z" fill="white"/>
<path d="M221.734 768.832V740.846C221.734 735.725 220.956 732.146 219.398 730.109C217.871 728.043 215.296 727.01 211.672 727.01C209.725 727.01 207.689 727.594 205.562 728.762C203.436 729.93 201.804 731.367 200.666 733.074V768.832H192.131V720.721H197.971L200.666 726.92C203.481 722.188 208.078 719.822 214.457 719.822C224.999 719.822 230.27 726.231 230.27 739.049V768.832H221.734Z" fill="white"/>
<path d="M251.248 702.527C252.715 702.527 253.958 703.051 254.977 704.1C256.025 705.118 256.549 706.346 256.549 707.783C256.549 709.251 256.025 710.508 254.977 711.557C253.958 712.575 252.715 713.084 251.248 713.084C249.811 713.084 248.568 712.575 247.52 711.557C246.501 710.508 245.992 709.251 245.992 707.783C245.992 706.316 246.501 705.073 247.52 704.055C248.538 703.036 249.781 702.527 251.248 702.527ZM246.576 768.832V727.908H239.973V720.721H255.111V768.832H246.576Z" fill="white"/>
<path d="M299.764 768.832L284.67 744.754L277.213 752.436V768.832H268.678V701H277.213V743.092L295.631 720.721H305.604L290.195 739.004L309.018 768.832H299.764Z" fill="white"/>
<path d="M323.932 702.527C325.399 702.527 326.642 703.051 327.66 704.1C328.708 705.118 329.232 706.346 329.232 707.783C329.232 709.251 328.708 710.508 327.66 711.557C326.642 712.575 325.399 713.084 323.932 713.084C322.494 713.084 321.251 712.575 320.203 711.557C319.185 710.508 318.676 709.251 318.676 707.783C318.676 706.316 319.185 705.073 320.203 704.055C321.221 703.036 322.464 702.527 323.932 702.527ZM319.26 768.832V727.908H312.656V720.721H327.795V768.832H319.26Z" fill="white"/>
<path d="M419.346 768.832L411.529 726.561L397.154 769.73H394.908L380.129 726.561L372.492 768.832H363.957L376.266 703.021H380.354L396.031 751.043L410.496 703.021H414.539L427.881 768.832H419.346Z" fill="white"/>
<path d="M431.295 744.664C431.295 737.237 433.286 731.247 437.27 726.695C441.283 722.113 446.553 719.822 453.082 719.822C459.97 719.822 465.316 722.023 469.119 726.426C472.923 730.798 474.824 736.878 474.824 744.664C474.824 752.421 472.878 758.545 468.984 763.037C465.091 767.499 459.79 769.73 453.082 769.73C446.224 769.73 440.878 767.469 437.045 762.947C433.212 758.425 431.295 752.331 431.295 744.664ZM440.279 744.664C440.279 756.733 444.547 762.768 453.082 762.768C457.065 762.768 460.18 761.15 462.426 757.916C464.702 754.682 465.84 750.264 465.84 744.664C465.84 732.745 461.587 726.785 453.082 726.785C449.189 726.785 446.074 728.372 443.738 731.547C441.432 734.721 440.279 739.094 440.279 744.664Z" fill="white"/>
<path d="M509.998 728.941C508.141 727.654 506.27 727.01 504.383 727.01C501.358 727.01 498.708 728.402 496.432 731.188C494.186 733.973 493.062 737.327 493.062 741.25V768.832H484.527V720.721H493.062V728.402C496.177 722.682 500.804 719.822 506.943 719.822C508.471 719.822 510.672 720.092 513.547 720.631L509.998 728.941Z" fill="white"/>
<path d="M516.467 765.957L519.477 757.871C524.238 760.986 528.072 762.543 530.977 762.543C536.247 762.543 538.883 760.327 538.883 755.895C538.883 752.72 536.337 749.995 531.246 747.719C527.323 745.922 524.673 744.559 523.295 743.631C521.947 742.702 520.764 741.654 519.746 740.486C518.758 739.288 518.009 738.031 517.5 736.713C517.021 735.365 516.781 733.928 516.781 732.4C516.781 728.447 518.219 725.363 521.094 723.146C523.969 720.93 527.727 719.822 532.369 719.822C535.873 719.822 540.29 720.93 545.621 723.146L543.195 731.053C539.811 728.357 536.412 727.01 532.998 727.01C530.962 727.01 529.24 727.489 527.832 728.447C526.454 729.406 525.766 730.618 525.766 732.086C525.766 735.171 527.518 737.507 531.021 739.094L537.131 741.879C540.874 743.586 543.6 745.533 545.307 747.719C547.014 749.905 547.867 752.645 547.867 755.939C547.867 760.252 546.355 763.636 543.33 766.092C540.305 768.518 536.113 769.73 530.752 769.73C525.691 769.73 520.929 768.473 516.467 765.957Z" fill="white"/>
<path d="M587.982 768.832L572.889 744.754L565.432 752.436V768.832H556.896V701H565.432V743.092L583.85 720.721H593.822L578.414 739.004L597.236 768.832H587.982Z" fill="white"/>
<path d="M612.15 702.527C613.618 702.527 614.861 703.051 615.879 704.1C616.927 705.118 617.451 706.346 617.451 707.783C617.451 709.251 616.927 710.508 615.879 711.557C614.861 712.575 613.618 713.084 612.15 713.084C610.713 713.084 609.47 712.575 608.422 711.557C607.404 710.508 606.895 709.251 606.895 707.783C606.895 706.316 607.404 705.073 608.422 704.055C609.44 703.036 610.683 702.527 612.15 702.527ZM607.479 768.832V727.908H600.875V720.721H616.014V768.832H607.479Z" fill="white"/>
<path d="M670.1 745.607H635.42C635.42 751.238 636.962 755.565 640.047 758.59C642.772 761.225 646.276 762.543 650.559 762.543C655.44 762.543 659.513 761.12 662.777 758.275L666.371 764.43C665.053 765.747 663.032 766.885 660.307 767.844C656.893 769.102 653.089 769.73 648.896 769.73C642.847 769.73 637.711 767.679 633.488 763.576C628.786 759.054 626.436 752.975 626.436 745.338C626.436 737.402 628.846 731.038 633.668 726.246C637.98 721.964 643.087 719.822 648.986 719.822C655.844 719.822 661.22 721.754 665.113 725.617C668.887 729.331 670.773 734.257 670.773 740.396C670.773 742.283 670.549 744.02 670.1 745.607ZM649.391 727.01C645.587 727.01 642.398 728.238 639.822 730.693C637.367 733.029 635.974 735.934 635.645 739.408H662.283C662.283 735.964 661.205 733.089 659.049 730.783C656.683 728.268 653.464 727.01 649.391 727.01Z" fill="white"/>
<path d="M692.965 702.527C694.432 702.527 695.675 703.051 696.693 704.1C697.742 705.118 698.266 706.346 698.266 707.783C698.266 709.251 697.742 710.508 696.693 711.557C695.675 712.575 694.432 713.084 692.965 713.084C691.497 713.084 690.255 712.575 689.236 711.557C688.218 710.508 687.709 709.251 687.709 707.783C687.709 706.316 688.218 705.073 689.236 704.055C690.255 703.036 691.497 702.527 692.965 702.527ZM674.547 787.699V780.062C680.417 780.062 684.43 779.164 686.586 777.367C688.772 775.6 689.865 772.68 689.865 768.607V727.908H680.297V720.721H698.4V768.428C698.4 775.046 696.454 779.913 692.561 783.027C688.667 786.142 682.663 787.699 674.547 787.699Z" fill="white"/>
<path d="M137.275 808C138.743 808 139.986 808.524 141.004 809.572C142.052 810.59 142.576 811.818 142.576 813.256C142.576 814.723 142.052 815.981 141.004 817.029C139.986 818.048 138.743 818.557 137.275 818.557C135.838 818.557 134.595 818.048 133.547 817.029C132.529 815.981 132.02 814.723 132.02 813.256C132.02 811.788 132.529 810.546 133.547 809.527C134.565 808.509 135.808 808 137.275 808ZM132.604 874.305V833.381H126V826.193H141.139V874.305H132.604Z" fill="white"/>
<path d="M194.494 816.58V874.305H185.51V816.58H164.576V808.494H216.371V816.58H194.494Z" fill="white"/>
<path d="M236.238 834.414C234.382 833.126 232.51 832.482 230.623 832.482C227.598 832.482 224.948 833.875 222.672 836.66C220.426 839.445 219.303 842.799 219.303 846.723V874.305H210.768V826.193H219.303V833.875C222.417 828.155 227.044 825.295 233.184 825.295C234.711 825.295 236.912 825.564 239.787 826.104L236.238 834.414Z" fill="white"/>
<path d="M273.029 868.779C269.615 873.062 264.389 875.203 257.352 875.203C253.578 875.203 250.299 873.84 247.514 871.115C244.758 868.36 243.381 864.946 243.381 860.873C243.381 855.992 245.507 851.874 249.76 848.52C254.042 845.135 259.493 843.443 266.111 843.443C267.908 843.443 269.945 843.833 272.221 844.611C272.221 836.825 268.747 832.932 261.799 832.932C256.468 832.932 252.365 834.369 249.49 837.244L245.897 830.102C247.514 828.784 249.745 827.661 252.59 826.732C255.465 825.774 258.205 825.295 260.811 825.295C267.788 825.295 272.85 826.882 275.994 830.057C279.169 833.231 280.756 838.277 280.756 845.195V862.445C280.756 866.668 282.014 869.483 284.529 870.891V875.158C281.055 875.158 278.45 874.664 276.713 873.676C275.006 872.688 273.778 871.055 273.029 868.779ZM272.221 850.676C269.525 850.077 267.639 849.777 266.561 849.777C262.248 849.777 258.729 850.885 256.004 853.102C253.279 855.318 251.916 857.938 251.916 860.963C251.916 865.964 254.866 868.465 260.766 868.465C265.078 868.465 268.897 866.413 272.221 862.311V850.676Z" fill="white"/>
<path d="M323.791 874.305V846.318C323.791 841.197 323.012 837.618 321.455 835.582C319.928 833.516 317.352 832.482 313.729 832.482C311.782 832.482 309.745 833.066 307.619 834.234C305.493 835.402 303.861 836.84 302.723 838.547V874.305H294.188V826.193H300.027L302.723 832.393C305.538 827.661 310.135 825.295 316.514 825.295C327.055 825.295 332.326 831.704 332.326 844.521V874.305H323.791Z" fill="white"/>
<path d="M341.355 871.43L344.365 863.344C349.127 866.458 352.96 868.016 355.865 868.016C361.136 868.016 363.772 865.799 363.772 861.367C363.772 858.193 361.226 855.467 356.135 853.191C352.212 851.395 349.561 850.032 348.184 849.104C346.836 848.175 345.653 847.127 344.635 845.959C343.647 844.761 342.898 843.503 342.389 842.186C341.91 840.838 341.67 839.4 341.67 837.873C341.67 833.92 343.107 830.835 345.982 828.619C348.857 826.403 352.616 825.295 357.258 825.295C360.762 825.295 365.179 826.403 370.51 828.619L368.084 836.525C364.7 833.83 361.301 832.482 357.887 832.482C355.85 832.482 354.128 832.962 352.721 833.92C351.343 834.878 350.654 836.091 350.654 837.559C350.654 840.643 352.406 842.979 355.91 844.566L362.02 847.352C365.763 849.059 368.488 851.005 370.195 853.191C371.902 855.378 372.756 858.118 372.756 861.412C372.756 865.725 371.244 869.109 368.219 871.564C365.194 873.99 361.001 875.203 355.641 875.203C350.579 875.203 345.818 873.945 341.355 871.43Z" fill="white"/>
<path d="M390.32 871.654V893.172H381.785V826.193H390.32V830.146C393.555 826.912 397.463 825.295 402.045 825.295C408.873 825.295 414.189 827.421 417.992 831.674C421.796 835.926 423.697 842.156 423.697 850.361C423.697 857.669 421.781 863.643 417.947 868.285C414.114 872.897 408.574 875.203 401.326 875.203C399.29 875.203 397.104 874.844 394.768 874.125C392.462 873.406 390.979 872.583 390.32 871.654ZM390.32 836.57V864.602C390.859 865.41 391.997 866.189 393.734 866.938C395.471 867.656 397.163 868.016 398.811 868.016C409.412 868.016 414.713 862.026 414.713 850.047C414.713 843.967 413.455 839.52 410.939 836.705C408.424 833.89 404.396 832.482 398.855 832.482C397.658 832.482 396.19 832.902 394.453 833.74C392.716 834.579 391.339 835.522 390.32 836.57Z" fill="white"/>
<path d="M429.941 850.137C429.941 842.71 431.933 836.72 435.916 832.168C439.929 827.586 445.2 825.295 451.729 825.295C458.617 825.295 463.962 827.496 467.766 831.898C471.569 836.271 473.471 842.35 473.471 850.137C473.471 857.893 471.524 864.018 467.631 868.51C463.738 872.972 458.437 875.203 451.729 875.203C444.87 875.203 439.525 872.942 435.691 868.42C431.858 863.898 429.941 857.803 429.941 850.137ZM438.926 850.137C438.926 862.206 443.193 868.24 451.729 868.24C455.712 868.24 458.826 866.623 461.072 863.389C463.348 860.154 464.486 855.737 464.486 850.137C464.486 838.217 460.234 832.258 451.729 832.258C447.835 832.258 444.721 833.845 442.385 837.02C440.079 840.194 438.926 844.566 438.926 850.137Z" fill="white"/>
<path d="M508.645 834.414C506.788 833.126 504.916 832.482 503.029 832.482C500.005 832.482 497.354 833.875 495.078 836.66C492.832 839.445 491.709 842.799 491.709 846.723V874.305H483.174V826.193H491.709V833.875C494.824 828.155 499.451 825.295 505.59 825.295C507.117 825.295 509.318 825.564 512.193 826.104L508.645 834.414Z" fill="white"/>
<path d="M521.313 832.932H515.742V826.193H521.313V816.131L529.848 812.852V826.193H543.055V832.932H529.848V856.83C529.848 860.873 530.522 863.748 531.869 865.455C533.247 867.162 535.448 868.016 538.473 868.016C540.659 868.016 542.92 867.462 545.256 866.354L546.514 873.855C542.98 874.754 539.102 875.203 534.879 875.203C531.076 875.203 527.856 873.796 525.221 870.98C522.615 868.135 521.313 864.557 521.313 860.244V832.932Z" fill="white"/>
<path d="M562.82 826.193V856.875C562.82 864.302 566.04 868.016 572.479 868.016C575.294 868.016 577.869 867.207 580.205 865.59C582.541 863.973 584.083 862.101 584.832 859.975V826.193H593.367V874.305H584.832V867.656C583.874 869.543 581.942 871.28 579.037 872.867C576.162 874.424 573.347 875.203 570.592 875.203C565.321 875.203 561.278 873.691 558.463 870.666C555.678 867.641 554.285 863.344 554.285 857.773V826.193H562.82Z" fill="white"/>
</svg>
