<svg width="1144" height="895" viewBox="0 0 1144 895" fill="none" xmlns="http://www.w3.org/2000/svg">
<path d="M718.476 490H473.976L718.476 1H962.976L718.476 490Z" fill="#005366" stroke="#005366"/>
<path d="M657.476 1.5L413.476 490C256.976 490 235.976 358.5 289.476 249L413.476 1.5H657.476Z" fill="#005366" stroke="#005366"/>
<path d="M6.73828 701.189H15.7227V746.246C15.7227 750.259 16.9954 753.568 19.541 756.174C22.0866 758.749 25.4557 760.037 29.6484 760.037C34.0807 760.037 37.5697 758.779 40.1152 756.264C42.6608 753.748 43.9336 750.334 43.9336 746.021V701.189H52.918V746.965C52.918 753.613 50.8366 758.809 46.6738 762.553C42.541 766.266 36.8958 768.123 29.7383 768.123C22.3711 768.123 16.696 766.296 12.7129 762.643C8.72982 758.989 6.73828 753.748 6.73828 746.92V701.189ZM95.3242 767V739.014C95.3242 733.893 94.5456 730.314 92.9883 728.277C91.4609 726.211 88.8854 725.178 85.2617 725.178C83.3151 725.178 81.2786 725.762 79.1523 726.93C77.026 728.098 75.3939 729.535 74.2559 731.242V767H65.7207V718.889H71.5605L74.2559 725.088C77.071 720.356 81.668 717.99 88.0469 717.99C98.5885 717.99 103.859 724.399 103.859 737.217V767H95.3242ZM124.838 700.695C126.305 700.695 127.548 701.219 128.566 702.268C129.615 703.286 130.139 704.514 130.139 705.951C130.139 707.419 129.615 708.676 128.566 709.725C127.548 710.743 126.305 711.252 124.838 711.252C123.4 711.252 122.158 710.743 121.109 709.725C120.091 708.676 119.582 707.419 119.582 705.951C119.582 704.484 120.091 703.241 121.109 702.223C122.128 701.204 123.37 700.695 124.838 700.695ZM120.166 767V726.076H113.562V718.889H128.701V767H120.166ZM186.74 767.898H184.494L170.389 735.15L156.328 767.898H154.082L136.877 718.754H145.996L156.283 750.334L169.086 718.754H171.332L184.539 750.334L195.59 718.754H203.99L186.74 767.898ZM251.248 743.775H216.568C216.568 749.406 218.111 753.733 221.195 756.758C223.921 759.393 227.424 760.711 231.707 760.711C236.589 760.711 240.661 759.288 243.926 756.443L247.52 762.598C246.202 763.915 244.18 765.053 241.455 766.012C238.041 767.27 234.238 767.898 230.045 767.898C223.995 767.898 218.859 765.847 214.637 761.744C209.935 757.222 207.584 751.143 207.584 743.506C207.584 735.57 209.995 729.206 214.816 724.414C219.129 720.132 224.235 717.99 230.135 717.99C236.993 717.99 242.368 719.922 246.262 723.785C250.035 727.499 251.922 732.425 251.922 738.564C251.922 740.451 251.697 742.188 251.248 743.775ZM230.539 725.178C226.736 725.178 223.546 726.406 220.971 728.861C218.515 731.197 217.122 734.102 216.793 737.576H243.432C243.432 734.132 242.354 731.257 240.197 728.951C237.831 726.436 234.612 725.178 230.539 725.178ZM287.096 727.109C285.239 725.822 283.367 725.178 281.48 725.178C278.456 725.178 275.805 726.57 273.529 729.355C271.283 732.141 270.16 735.495 270.16 739.418V767H261.625V718.889H270.16V726.57C273.275 720.85 277.902 717.99 284.041 717.99C285.568 717.99 287.77 718.26 290.645 718.799L287.096 727.109ZM293.564 764.125L296.574 756.039C301.336 759.154 305.169 760.711 308.074 760.711C313.345 760.711 315.98 758.495 315.98 754.062C315.98 750.888 313.435 748.163 308.344 745.887C304.421 744.09 301.77 742.727 300.393 741.799C299.045 740.87 297.862 739.822 296.844 738.654C295.855 737.456 295.107 736.199 294.598 734.881C294.118 733.533 293.879 732.096 293.879 730.568C293.879 726.615 295.316 723.531 298.191 721.314C301.066 719.098 304.825 717.99 309.467 717.99C312.971 717.99 317.388 719.098 322.719 721.314L320.293 729.221C316.909 726.525 313.51 725.178 310.096 725.178C308.059 725.178 306.337 725.657 304.93 726.615C303.552 727.574 302.863 728.786 302.863 730.254C302.863 733.339 304.615 735.674 308.119 737.262L314.229 740.047C317.972 741.754 320.697 743.701 322.404 745.887C324.111 748.073 324.965 750.813 324.965 754.107C324.965 758.42 323.452 761.804 320.428 764.26C317.403 766.686 313.21 767.898 307.85 767.898C302.788 767.898 298.027 766.641 293.564 764.125ZM352.367 775.176C351.259 778.23 348.923 780.776 345.359 782.812C341.826 784.849 337.872 785.867 333.5 785.867V778.23C337.064 778.23 340.118 777.392 342.664 775.715C345.21 774.068 346.482 772.046 346.482 769.65C346.482 767.015 346.018 764.424 345.09 761.879C344.161 759.303 342.964 756.129 341.496 752.355L328.469 718.889H337.184L351.334 756.084L364.047 718.889H372.762L352.367 775.176ZM382.42 725.627H376.85V718.889H382.42V708.826L390.955 705.547V718.889H404.162V725.627H390.955V749.525C390.955 753.568 391.629 756.443 392.977 758.15C394.354 759.857 396.555 760.711 399.58 760.711C401.766 760.711 404.027 760.157 406.363 759.049L407.621 766.551C404.087 767.449 400.209 767.898 395.986 767.898C392.183 767.898 388.964 766.491 386.328 763.676C383.723 760.831 382.42 757.252 382.42 752.939V725.627ZM456.361 743.775H421.682C421.682 749.406 423.224 753.733 426.309 756.758C429.034 759.393 432.538 760.711 436.82 760.711C441.702 760.711 445.775 759.288 449.039 756.443L452.633 762.598C451.315 763.915 449.294 765.053 446.568 766.012C443.154 767.27 439.351 767.898 435.158 767.898C429.109 767.898 423.973 765.847 419.75 761.744C415.048 757.222 412.697 751.143 412.697 743.506C412.697 735.57 415.108 729.206 419.93 724.414C424.242 720.132 429.348 717.99 435.248 717.99C442.106 717.99 447.482 719.922 451.375 723.785C455.148 727.499 457.035 732.425 457.035 738.564C457.035 740.451 456.811 742.188 456.361 743.775ZM435.652 725.178C431.849 725.178 428.66 726.406 426.084 728.861C423.628 731.197 422.236 734.102 421.906 737.576H448.545C448.545 734.132 447.467 731.257 445.311 728.951C442.945 726.436 439.725 725.178 435.652 725.178ZM469.119 725.627H463.549V718.889H469.119V708.826L477.654 705.547V718.889H490.861V725.627H477.654V749.525C477.654 753.568 478.328 756.443 479.676 758.15C481.053 759.857 483.255 760.711 486.279 760.711C488.465 760.711 490.727 760.157 493.062 759.049L494.32 766.551C490.786 767.449 486.908 767.898 482.686 767.898C478.882 767.898 475.663 766.491 473.027 763.676C470.422 760.831 469.119 757.252 469.119 752.939V725.627Z" fill="#005366"/>
<path d="M360.537 874.898H358.291L344.186 842.15L330.125 874.898H327.879L310.674 825.754H319.793L330.08 857.334L342.883 825.754H345.129L358.336 857.334L369.387 825.754H377.787L360.537 874.898ZM409.996 870.99L413.275 862.725C414.952 863.952 417.034 864.986 419.52 865.824C422.035 866.633 424.281 867.037 426.258 867.037C429.762 867.037 432.577 866.079 434.703 864.162C436.829 862.245 437.893 859.805 437.893 856.84C437.893 854.624 437.294 852.572 436.096 850.686C434.928 848.769 431.963 846.688 427.201 844.441L421.9 841.971C417.408 839.874 414.264 837.389 412.467 834.514C410.7 831.639 409.816 828.18 409.816 824.137C409.816 819.225 411.553 815.152 415.027 811.918C418.501 808.684 422.964 807.066 428.414 807.066C435.691 807.066 440.753 808.249 443.598 810.615L440.947 818.432C439.749 817.563 437.923 816.725 435.467 815.916C433.011 815.107 430.735 814.703 428.639 814.703C425.584 814.703 423.173 815.572 421.406 817.309C419.669 819.046 418.801 821.277 418.801 824.002C418.801 825.679 419.115 827.206 419.744 828.584C420.373 829.962 421.242 831.115 422.35 832.043C423.488 832.971 425.794 834.274 429.268 835.951L434.658 838.512C439.15 840.638 442.295 843.184 444.092 846.148C445.919 849.083 446.832 852.827 446.832 857.379C446.832 862.32 444.84 866.513 440.857 869.957C436.904 873.401 431.604 875.123 424.955 875.123C419.115 875.123 414.129 873.745 409.996 870.99ZM465.699 866.363H492.383V874H452.312V871.754L479.67 833.525H452.762V825.889H492.113V828.314L465.699 866.363ZM536.541 829.797L532.318 835.816C531.45 834.948 529.908 834.124 527.691 833.346C525.505 832.567 523.349 832.178 521.223 832.178C516.581 832.178 512.897 833.81 510.172 837.074C507.447 840.309 506.084 844.756 506.084 850.416C506.084 856.046 507.477 860.344 510.262 863.309C513.047 866.243 516.91 867.711 521.852 867.711C525.685 867.711 529.548 866.229 533.441 863.264L536.811 870.451C532.229 873.416 526.553 874.898 519.785 874.898C513.227 874.898 507.806 872.697 503.523 868.295C499.241 863.893 497.1 857.933 497.1 850.416C497.1 842.749 499.316 836.595 503.748 831.953C508.21 827.311 514.305 824.99 522.031 824.99C524.517 824.99 527.212 825.514 530.117 826.562C533.022 827.611 535.163 828.689 536.541 829.797ZM554.914 866.363H581.598V874H541.527V871.754L568.885 833.525H541.977V825.889H581.328V828.314L554.914 866.363ZM629.979 850.775H595.299C595.299 856.406 596.841 860.733 599.926 863.758C602.651 866.393 606.155 867.711 610.438 867.711C615.319 867.711 619.392 866.288 622.656 863.443L626.25 869.598C624.932 870.915 622.911 872.053 620.186 873.012C616.771 874.27 612.968 874.898 608.775 874.898C602.726 874.898 597.59 872.847 593.367 868.744C588.665 864.222 586.314 858.143 586.314 850.506C586.314 842.57 588.725 836.206 593.547 831.414C597.859 827.132 602.965 824.99 608.865 824.99C615.723 824.99 621.099 826.922 624.992 830.785C628.766 834.499 630.652 839.425 630.652 845.564C630.652 847.451 630.428 849.188 629.979 850.775ZM609.27 832.178C605.466 832.178 602.277 833.406 599.701 835.861C597.245 838.197 595.853 841.102 595.523 844.576H622.162C622.162 841.132 621.084 838.257 618.928 835.951C616.562 833.436 613.342 832.178 609.27 832.178ZM675.979 829.797L671.756 835.816C670.887 834.948 669.345 834.124 667.129 833.346C664.943 832.567 662.786 832.178 660.66 832.178C656.018 832.178 652.335 833.81 649.609 837.074C646.884 840.309 645.521 844.756 645.521 850.416C645.521 856.046 646.914 860.344 649.699 863.309C652.484 866.243 656.348 867.711 661.289 867.711C665.122 867.711 668.986 866.229 672.879 863.264L676.248 870.451C671.666 873.416 665.991 874.898 659.223 874.898C652.664 874.898 647.243 872.697 642.961 868.295C638.678 863.893 636.537 857.933 636.537 850.416C636.537 842.749 638.753 836.595 643.186 831.953C647.648 827.311 653.742 824.99 661.469 824.99C663.954 824.99 666.65 825.514 669.555 826.562C672.46 827.611 674.601 828.689 675.979 829.797ZM694.037 807.695C695.505 807.695 696.747 808.219 697.766 809.268C698.814 810.286 699.338 811.514 699.338 812.951C699.338 814.419 698.814 815.676 697.766 816.725C696.747 817.743 695.505 818.252 694.037 818.252C692.6 818.252 691.357 817.743 690.309 816.725C689.29 815.676 688.781 814.419 688.781 812.951C688.781 811.484 689.29 810.241 690.309 809.223C691.327 808.204 692.57 807.695 694.037 807.695ZM689.365 874V833.076H682.762V825.889H697.9V874H689.365ZM741.07 874V846.014C741.07 840.893 740.292 837.314 738.734 835.277C737.207 833.211 734.632 832.178 731.008 832.178C729.061 832.178 727.025 832.762 724.898 833.93C722.772 835.098 721.14 836.535 720.002 838.242V874H711.467V825.889H717.307L720.002 832.088C722.817 827.356 727.414 824.99 733.793 824.99C744.335 824.99 749.605 831.399 749.605 844.217V874H741.07ZM770.584 807.695C772.051 807.695 773.294 808.219 774.312 809.268C775.361 810.286 775.885 811.514 775.885 812.951C775.885 814.419 775.361 815.676 774.312 816.725C773.294 817.743 772.051 818.252 770.584 818.252C769.146 818.252 767.904 817.743 766.855 816.725C765.837 815.676 765.328 814.419 765.328 812.951C765.328 811.484 765.837 810.241 766.855 809.223C767.874 808.204 769.117 807.695 770.584 807.695ZM765.912 874V833.076H759.309V825.889H774.447V874H765.912ZM828.533 850.775H793.854C793.854 856.406 795.396 860.733 798.48 863.758C801.206 866.393 804.71 867.711 808.992 867.711C813.874 867.711 817.947 866.288 821.211 863.443L824.805 869.598C823.487 870.915 821.465 872.053 818.74 873.012C815.326 874.27 811.523 874.898 807.33 874.898C801.281 874.898 796.145 872.847 791.922 868.744C787.22 864.222 784.869 858.143 784.869 850.506C784.869 842.57 787.28 836.206 792.102 831.414C796.414 827.132 801.52 824.99 807.42 824.99C814.278 824.99 819.654 826.922 823.547 830.785C827.32 834.499 829.207 839.425 829.207 845.564C829.207 847.451 828.982 849.188 828.533 850.775ZM807.824 832.178C804.021 832.178 800.831 833.406 798.256 835.861C795.8 838.197 794.408 841.102 794.078 844.576H820.717C820.717 841.132 819.639 838.257 817.482 835.951C815.117 833.436 811.897 832.178 807.824 832.178Z" fill="#005366"/>
<path d="M551.974 709.376V768.632H542.973V709.376H522V701.075H573.891V709.376H551.974Z" fill="#005366"/>
<path d="M610.459 744.791H575.714C575.714 750.571 577.259 755.013 580.35 758.118C583.08 760.823 586.591 762.176 590.881 762.176C595.772 762.176 599.852 760.716 603.123 757.795L606.723 764.113C605.403 765.466 603.378 766.634 600.647 767.618C597.227 768.909 593.416 769.554 589.216 769.554C583.155 769.554 578.009 767.449 573.779 763.237C569.068 758.595 566.713 752.354 566.713 744.515C566.713 736.368 569.128 729.835 573.959 724.916C578.28 720.52 583.395 718.322 589.306 718.322C596.177 718.322 601.562 720.305 605.463 724.27C609.243 728.083 611.134 733.14 611.134 739.442C611.134 741.379 610.909 743.162 610.459 744.791ZM589.711 725.7C585.9 725.7 582.705 726.96 580.125 729.481C577.664 731.879 576.269 734.861 575.939 738.427H602.628C602.628 734.892 601.547 731.941 599.387 729.574C597.017 726.991 593.791 725.7 589.711 725.7Z" fill="#005366"/>
<path d="M656.544 723.256L652.314 729.435C651.444 728.544 649.898 727.698 647.678 726.899C645.488 726.1 643.328 725.7 641.197 725.7C636.547 725.7 632.856 727.375 630.126 730.726C627.396 734.047 626.03 738.612 626.03 744.422C626.03 750.202 627.426 754.613 630.216 757.657C633.006 760.67 636.877 762.176 641.827 762.176C645.668 762.176 649.538 760.654 653.439 757.611L656.814 764.989C652.224 768.033 646.538 769.554 639.757 769.554C633.186 769.554 627.756 767.295 623.465 762.776C619.175 758.256 617.029 752.139 617.029 744.422C617.029 736.552 619.25 730.235 623.69 725.469C628.161 720.704 634.266 718.322 642.007 718.322C644.498 718.322 647.198 718.86 650.108 719.936C653.019 721.012 655.164 722.118 656.544 723.256Z" fill="#005366"/>
<path d="M695.519 768.632V737.597C695.519 733.908 694.634 731.003 692.864 728.882C691.094 726.761 688.603 725.7 685.393 725.7C683.323 725.7 681.237 726.33 679.137 727.591C677.067 728.82 675.477 730.265 674.366 731.925V768.632H665.815V699H674.366V724.685C675.507 722.872 677.337 721.365 679.857 720.166C682.407 718.937 685.033 718.322 687.733 718.322C692.834 718.322 696.824 720.043 699.705 723.487C702.615 726.93 704.07 731.633 704.07 737.597V768.632H695.519Z" fill="#005366"/>
<path d="M745.88 768.632V739.903C745.88 734.646 745.1 730.972 743.54 728.882C742.01 726.761 739.43 725.7 735.799 725.7C733.849 725.7 731.809 726.299 729.678 727.498C727.548 728.697 725.913 730.173 724.773 731.925V768.632H716.222V719.244H722.072L724.773 725.608C727.593 720.75 732.199 718.322 738.589 718.322C749.151 718.322 754.431 724.901 754.431 738.059V768.632H745.88Z" fill="#005366"/>
<path d="M763.478 743.823C763.478 736.199 765.473 730.05 769.463 725.377C773.484 720.674 778.764 718.322 785.305 718.322C792.206 718.322 797.562 720.581 801.372 725.101C805.183 729.589 807.088 735.83 807.088 743.823C807.088 751.785 805.138 758.072 801.237 762.683C797.337 767.264 792.026 769.554 785.305 769.554C778.434 769.554 773.079 767.233 769.238 762.591C765.398 757.949 763.478 751.693 763.478 743.823ZM772.479 743.823C772.479 756.212 776.754 762.407 785.305 762.407C789.296 762.407 792.416 760.747 794.666 757.426C796.947 754.106 798.087 749.572 798.087 743.823C798.087 731.587 793.826 725.469 785.305 725.469C781.405 725.469 778.284 727.099 775.944 730.358C773.634 733.616 772.479 738.105 772.479 743.823Z" fill="#005366"/>
<path d="M816.809 754.66V699H825.36V753.184C825.36 755.828 826.095 757.918 827.566 759.455C829.066 760.962 831.016 761.715 833.416 761.715V769.554C822.345 769.554 816.809 764.589 816.809 754.66Z" fill="#005366"/>
<path d="M840.167 743.823C840.167 736.199 842.162 730.05 846.153 725.377C850.173 720.674 855.454 718.322 861.995 718.322C868.896 718.322 874.251 720.581 878.062 725.101C881.872 729.589 883.778 735.83 883.778 743.823C883.778 751.785 881.827 758.072 877.927 762.683C874.026 767.264 868.716 769.554 861.995 769.554C855.124 769.554 849.768 767.233 845.928 762.591C842.087 757.949 840.167 751.693 840.167 743.823ZM849.168 743.823C849.168 756.212 853.444 762.407 861.995 762.407C865.985 762.407 869.106 760.747 871.356 757.426C873.636 754.106 874.776 749.572 874.776 743.823C874.776 731.587 870.516 725.469 861.995 725.469C858.094 725.469 854.974 727.099 852.634 730.358C850.323 733.616 849.168 738.105 849.168 743.823Z" fill="#005366"/>
<path d="M891.068 782.144L895.704 775.134C900.685 778.547 905.275 780.253 909.476 780.253C913.346 780.253 916.392 779.561 918.612 778.178C920.862 776.825 921.987 775.134 921.987 773.105C921.987 769.109 919.167 767.11 913.526 767.11C912.566 767.11 910.826 767.356 908.306 767.848C905.785 768.34 903.82 768.586 902.41 768.586C895.569 768.586 892.149 765.942 892.149 760.654C892.149 759.025 892.944 757.549 894.534 756.227C896.154 754.906 898.149 753.953 900.52 753.368C893.739 750.11 890.348 744.453 890.348 736.398C890.348 731.234 892.104 726.93 895.614 723.487C899.124 720.043 903.46 718.322 908.621 718.322C913.361 718.322 917.067 719.321 919.737 721.319L924.013 716.062L929.593 721.458L924.463 725.423C926.653 728.344 927.748 732.156 927.748 736.86C927.748 741.84 926.233 746.021 923.202 749.403C920.172 752.784 916.197 754.721 911.276 755.213L904.21 755.951C903.37 756.043 902.245 756.381 900.835 756.965C899.425 757.519 898.719 758.256 898.719 759.179C898.719 760.439 900.19 761.069 903.13 761.069C904.42 761.069 906.43 760.839 909.161 760.378C911.891 759.886 913.916 759.64 915.237 759.64C919.977 759.64 923.668 760.808 926.308 763.145C928.978 765.45 930.313 768.663 930.313 772.782C930.313 777.332 928.318 781.006 924.328 783.804C920.367 786.601 915.342 788 909.251 788C906.13 788 902.845 787.431 899.395 786.294C895.944 785.156 893.169 783.773 891.068 782.144ZM909.206 725.377C906.235 725.377 903.805 726.453 901.915 728.605C900.055 730.757 899.124 733.37 899.124 736.445C899.124 739.888 900.025 742.747 901.825 745.022C903.655 747.266 906.115 748.388 909.206 748.388C912.236 748.388 914.606 747.297 916.317 745.114C918.027 742.901 918.882 740.011 918.882 736.445C918.882 733.37 917.952 730.757 916.092 728.605C914.261 726.453 911.966 725.377 909.206 725.377Z" fill="#005366"/>
<path d="M947.911 700.568C949.381 700.568 950.626 701.106 951.646 702.182C952.696 703.227 953.221 704.488 953.221 705.963C953.221 707.47 952.696 708.761 951.646 709.837C950.626 710.882 949.381 711.405 947.911 711.405C946.47 711.405 945.225 710.882 944.175 709.837C943.155 708.761 942.645 707.47 942.645 705.963C942.645 704.457 943.155 703.181 944.175 702.136C945.195 701.091 946.44 700.568 947.911 700.568ZM943.23 768.632V726.622H936.614V719.244H951.781V768.632H943.23Z" fill="#005366"/>
<path d="M1001.74 723.256L997.507 729.435C996.637 728.544 995.091 727.698 992.871 726.899C990.681 726.1 988.521 725.7 986.39 725.7C981.74 725.7 978.049 727.375 975.319 730.726C972.589 734.047 971.223 738.612 971.223 744.422C971.223 750.202 972.619 754.613 975.409 757.657C978.199 760.67 982.07 762.176 987.02 762.176C990.861 762.176 994.731 760.654 998.632 757.611L1002.01 764.989C997.417 768.033 991.731 769.554 984.95 769.554C978.379 769.554 972.949 767.295 968.658 762.776C964.368 758.256 962.222 752.139 962.222 744.422C962.222 736.552 964.443 730.235 968.883 725.469C973.354 720.704 979.46 718.322 987.2 718.322C989.691 718.322 992.391 718.86 995.301 719.936C998.212 721.012 1000.36 722.118 1001.74 723.256Z" fill="#005366"/>
<path d="M1020.14 760.793H1046.88V768.632H1006.73V766.326L1034.14 727.083H1007.18V719.244H1046.61V721.734L1020.14 760.793Z" fill="#005366"/>
<path d="M1084.41 768.632V739.903C1084.41 734.646 1083.63 730.972 1082.07 728.882C1080.54 726.761 1077.96 725.7 1074.33 725.7C1072.38 725.7 1070.34 726.299 1068.21 727.498C1066.08 728.697 1064.45 730.173 1063.3 731.925V768.632H1054.75V719.244H1060.6L1063.3 725.608C1066.13 720.75 1070.73 718.322 1077.12 718.322C1087.68 718.322 1092.96 724.901 1092.96 738.059V768.632H1084.41Z" fill="#005366"/>
<path d="M1123.57 777.025C1122.46 780.161 1120.12 782.774 1116.55 784.864C1113.01 786.955 1109.05 788 1104.67 788V780.161C1108.24 780.161 1111.3 779.3 1113.85 777.578C1116.4 775.887 1117.67 773.812 1117.67 771.353C1117.67 768.647 1117.21 765.988 1116.28 763.375C1115.35 760.731 1114.15 757.473 1112.68 753.599L1099.62 719.244H1108.36L1122.53 757.426L1135.27 719.244H1144L1123.57 777.025Z" fill="#005366"/>
<path d="M178.492 660V657.754L206.793 602.275H178.941V594.189H219.146V596.436L190.756 651.914H220.135V660H178.492ZM257.914 654.475C254.5 658.757 249.274 660.898 242.236 660.898C238.463 660.898 235.184 659.536 232.398 656.811C229.643 654.055 228.266 650.641 228.266 646.568C228.266 641.687 230.392 637.569 234.645 634.215C238.927 630.831 244.378 629.139 250.996 629.139C252.793 629.139 254.829 629.528 257.105 630.307C257.105 622.52 253.632 618.627 246.684 618.627C241.353 618.627 237.25 620.064 234.375 622.939L230.781 615.797C232.398 614.479 234.63 613.356 237.475 612.428C240.35 611.469 243.09 610.99 245.695 610.99C252.673 610.99 257.734 612.577 260.879 615.752C264.053 618.926 265.641 623.973 265.641 630.891V648.141C265.641 652.363 266.898 655.178 269.414 656.586V660.854C265.94 660.854 263.335 660.359 261.598 659.371C259.891 658.383 258.663 656.751 257.914 654.475ZM257.105 636.371C254.41 635.772 252.523 635.473 251.445 635.473C247.133 635.473 243.614 636.581 240.889 638.797C238.163 641.013 236.801 643.633 236.801 646.658C236.801 651.66 239.751 654.16 245.65 654.16C249.963 654.16 253.781 652.109 257.105 648.006V636.371ZM315.369 615.797L311.146 621.816C310.278 620.948 308.736 620.124 306.52 619.346C304.333 618.567 302.177 618.178 300.051 618.178C295.409 618.178 291.725 619.81 289 623.074C286.275 626.309 284.912 630.756 284.912 636.416C284.912 642.046 286.305 646.344 289.09 649.309C291.875 652.243 295.738 653.711 300.68 653.711C304.513 653.711 308.376 652.229 312.27 649.264L315.639 656.451C311.057 659.416 305.382 660.898 298.613 660.898C292.055 660.898 286.634 658.697 282.352 654.295C278.069 649.893 275.928 643.933 275.928 636.416C275.928 628.749 278.144 622.595 282.576 617.953C287.038 613.311 293.133 610.99 300.859 610.99C303.345 610.99 306.04 611.514 308.945 612.562C311.85 613.611 313.992 614.689 315.369 615.797ZM354.271 660V629.768C354.271 626.174 353.388 623.344 351.621 621.277C349.854 619.211 347.368 618.178 344.164 618.178C342.098 618.178 340.016 618.792 337.92 620.02C335.854 621.217 334.266 622.625 333.158 624.242V660H324.623V592.168H333.158V617.189C334.296 615.423 336.123 613.955 338.639 612.787C341.184 611.589 343.805 610.99 346.5 610.99C351.591 610.99 355.574 612.667 358.449 616.021C361.354 619.376 362.807 623.958 362.807 629.768V660H354.271ZM371.791 635.832C371.791 628.405 373.783 622.415 377.766 617.863C381.779 613.281 387.049 610.99 393.578 610.99C400.466 610.99 405.812 613.191 409.615 617.594C413.419 621.966 415.32 628.046 415.32 635.832C415.32 643.589 413.374 649.713 409.48 654.205C405.587 658.667 400.286 660.898 393.578 660.898C386.72 660.898 381.374 658.637 377.541 654.115C373.708 649.593 371.791 643.499 371.791 635.832ZM380.775 635.832C380.775 647.901 385.043 653.936 393.578 653.936C397.561 653.936 400.676 652.318 402.922 649.084C405.198 645.85 406.336 641.432 406.336 635.832C406.336 623.913 402.083 617.953 393.578 617.953C389.685 617.953 386.57 619.54 384.234 622.715C381.928 625.889 380.775 630.262 380.775 635.832ZM454.852 659.955V656.406C451.887 659.371 447.574 660.854 441.914 660.854C435.895 660.854 431.013 658.697 427.27 654.385C423.526 650.072 421.654 644.322 421.654 637.135C421.654 629.917 423.811 623.763 428.123 618.672C432.436 613.551 437.572 610.99 443.531 610.99C448.503 610.99 452.276 612.158 454.852 614.494V592.168H463.387V659.955H454.852ZM454.852 623.029C452.695 619.795 449.745 618.178 446.002 618.178C441.42 618.178 437.706 619.885 434.861 623.299C432.046 626.713 430.639 631.055 430.639 636.326C430.639 647.916 435.91 653.711 446.451 653.711C447.799 653.711 449.416 653.292 451.303 652.453C453.189 651.585 454.372 650.671 454.852 649.713V623.029ZM505.254 660V632.014C505.254 626.893 504.475 623.314 502.918 621.277C501.391 619.211 498.815 618.178 495.191 618.178C493.245 618.178 491.208 618.762 489.082 619.93C486.956 621.098 485.324 622.535 484.186 624.242V660H475.65V611.889H481.49L484.186 618.088C487.001 613.356 491.598 610.99 497.977 610.99C508.518 610.99 513.789 617.399 513.789 630.217V660H505.254ZM534.768 593.695C536.235 593.695 537.478 594.219 538.496 595.268C539.544 596.286 540.068 597.514 540.068 598.951C540.068 600.419 539.544 601.676 538.496 602.725C537.478 603.743 536.235 604.252 534.768 604.252C533.33 604.252 532.087 603.743 531.039 602.725C530.021 601.676 529.512 600.419 529.512 598.951C529.512 597.484 530.021 596.241 531.039 595.223C532.057 594.204 533.3 593.695 534.768 593.695ZM530.096 660V619.076H523.492V611.889H538.631V660H530.096ZM549.053 635.832C549.053 628.405 551.044 622.415 555.027 617.863C559.04 613.281 564.311 610.99 570.84 610.99C577.728 610.99 583.074 613.191 586.877 617.594C590.68 621.966 592.582 628.046 592.582 635.832C592.582 643.589 590.635 649.713 586.742 654.205C582.849 658.667 577.548 660.898 570.84 660.898C563.982 660.898 558.636 658.637 554.803 654.115C550.969 649.593 549.053 643.499 549.053 635.832ZM558.037 635.832C558.037 647.901 562.305 653.936 570.84 653.936C574.823 653.936 577.938 652.318 580.184 649.084C582.46 645.85 583.598 641.432 583.598 635.832C583.598 623.913 579.345 617.953 570.84 617.953C566.947 617.953 563.832 619.54 561.496 622.715C559.19 625.889 558.037 630.262 558.037 635.832ZM610.146 657.35V678.867H601.611V611.889H610.146V615.842C613.381 612.607 617.289 610.99 621.871 610.99C628.699 610.99 634.015 613.117 637.818 617.369C641.622 621.622 643.523 627.851 643.523 636.057C643.523 643.364 641.607 649.339 637.773 653.98C633.94 658.592 628.4 660.898 621.152 660.898C619.116 660.898 616.93 660.539 614.594 659.82C612.288 659.102 610.805 658.278 610.146 657.35ZM610.146 622.266V650.297C610.686 651.105 611.824 651.884 613.561 652.633C615.298 653.352 616.99 653.711 618.637 653.711C629.238 653.711 634.539 647.721 634.539 635.742C634.539 629.663 633.281 625.215 630.766 622.4C628.25 619.585 624.222 618.178 618.682 618.178C617.484 618.178 616.016 618.597 614.279 619.436C612.542 620.274 611.165 621.217 610.146 622.266ZM649.768 635.832C649.768 628.405 651.759 622.415 655.742 617.863C659.755 613.281 665.026 610.99 671.555 610.99C678.443 610.99 683.788 613.191 687.592 617.594C691.395 621.966 693.297 628.046 693.297 635.832C693.297 643.589 691.35 649.713 687.457 654.205C683.564 658.667 678.263 660.898 671.555 660.898C664.697 660.898 659.351 658.637 655.518 654.115C651.684 649.593 649.768 643.499 649.768 635.832ZM658.752 635.832C658.752 647.901 663.02 653.936 671.555 653.936C675.538 653.936 678.652 652.318 680.898 649.084C683.174 645.85 684.312 641.432 684.312 635.832C684.312 623.913 680.06 617.953 671.555 617.953C667.661 617.953 664.547 619.54 662.211 622.715C659.905 625.889 658.752 630.262 658.752 635.832ZM758.029 660V629.543C758.029 621.966 754.75 618.178 748.191 618.178C746.125 618.178 744.193 618.822 742.396 620.109C740.6 621.367 739.372 622.805 738.713 624.422V660H730.178V625.814C730.178 623.449 729.279 621.592 727.482 620.244C725.715 618.867 723.365 618.178 720.43 618.178C718.723 618.178 716.896 618.837 714.949 620.154C713.033 621.472 711.67 622.924 710.861 624.512V660H702.326V611.889H707.896L710.727 617.459C714.021 613.146 718.139 610.99 723.08 610.99C729.968 610.99 734.79 613.132 737.545 617.414C738.503 615.587 740.285 614.06 742.891 612.832C745.496 611.604 748.176 610.99 750.932 610.99C755.903 610.99 759.751 612.473 762.477 615.438C765.202 618.372 766.564 622.505 766.564 627.836V660H758.029ZM775.549 635.832C775.549 628.405 777.54 622.415 781.523 617.863C785.536 613.281 790.807 610.99 797.336 610.99C804.224 610.99 809.57 613.191 813.373 617.594C817.176 621.966 819.078 628.046 819.078 635.832C819.078 643.589 817.132 649.713 813.238 654.205C809.345 658.667 804.044 660.898 797.336 660.898C790.478 660.898 785.132 658.637 781.299 654.115C777.465 649.593 775.549 643.499 775.549 635.832ZM784.533 635.832C784.533 647.901 788.801 653.936 797.336 653.936C801.319 653.936 804.434 652.318 806.68 649.084C808.956 645.85 810.094 641.432 810.094 635.832C810.094 623.913 805.841 617.953 797.336 617.953C793.443 617.953 790.328 619.54 787.992 622.715C785.686 625.889 784.533 630.262 784.533 635.832ZM854.252 620.109C852.395 618.822 850.523 618.178 848.637 618.178C845.612 618.178 842.962 619.57 840.686 622.355C838.439 625.141 837.316 628.495 837.316 632.418V660H828.781V611.889H837.316V619.57C840.431 613.85 845.058 610.99 851.197 610.99C852.725 610.99 854.926 611.26 857.801 611.799L854.252 620.109ZM860.721 657.125L863.73 649.039C868.492 652.154 872.326 653.711 875.23 653.711C880.501 653.711 883.137 651.495 883.137 647.062C883.137 643.888 880.591 641.163 875.5 638.887C871.577 637.09 868.926 635.727 867.549 634.799C866.201 633.87 865.018 632.822 864 631.654C863.012 630.456 862.263 629.199 861.754 627.881C861.275 626.533 861.035 625.096 861.035 623.568C861.035 619.615 862.473 616.531 865.348 614.314C868.223 612.098 871.981 610.99 876.623 610.99C880.127 610.99 884.544 612.098 889.875 614.314L887.449 622.221C884.065 619.525 880.666 618.178 877.252 618.178C875.215 618.178 873.493 618.657 872.086 619.615C870.708 620.574 870.02 621.786 870.02 623.254C870.02 626.339 871.771 628.674 875.275 630.262L881.385 633.047C885.128 634.754 887.854 636.701 889.561 638.887C891.268 641.073 892.121 643.813 892.121 647.107C892.121 651.42 890.609 654.804 887.584 657.26C884.559 659.686 880.367 660.898 875.006 660.898C869.945 660.898 865.183 659.641 860.721 657.125ZM932.236 660L917.143 635.922L909.686 643.604V660H901.15V592.168H909.686V634.26L928.104 611.889H938.076L922.668 630.172L941.49 660H932.236ZM956.404 593.695C957.872 593.695 959.115 594.219 960.133 595.268C961.181 596.286 961.705 597.514 961.705 598.951C961.705 600.419 961.181 601.676 960.133 602.725C959.115 603.743 957.872 604.252 956.404 604.252C954.967 604.252 953.724 603.743 952.676 602.725C951.658 601.676 951.148 600.419 951.148 598.951C951.148 597.484 951.658 596.241 952.676 595.223C953.694 594.204 954.937 593.695 956.404 593.695ZM951.732 660V619.076H945.129V611.889H960.268V660H951.732Z" fill="#005366"/>
</svg>
